<svg width="81" height="81" viewBox="0 0 81 81" fill="none" xmlns="http://www.w3.org/2000/svg">
<path d="M78.723 73.9135C77.488 75.6706 75.9977 77.2482 74.5964 78.3179M3.52164 2.47582C3.03236 2.88615 2.73108 3.26292 2.39641 3.63927L3.52164 2.47582ZM3.49595 2.30303C3.12947 2.6853 2.66501 3.21972 2.30879 3.60853L3.49595 2.30303ZM7.93994 2.08888C4.9621 4.86895 3.13412 6.36792 2.15391 8.68489L7.93994 2.08888ZM7.45371 2.44921C5.31131 4.45775 3.18487 7.11287 2.32069 8.04741L7.45371 2.44921ZM12.6821 1C10.406 4.098 7.77772 8.13187 3.04742 13.4513L12.6821 1ZM11.6345 2.39711C8.40747 4.48338 6.54821 7.99643 3.03316 12.8814L11.6345 2.39711ZM15.3104 2.03128C11.6263 5.35192 9.19729 10.969 1.86514 18.4261L15.3104 2.03128ZM15.1861 2.10895C11.0763 7.50163 5.58287 13.1767 1.73259 17.2936L15.1861 2.10895ZM18.6334 1.46253C16.3141 6.91774 13.7125 9.69934 1.77001 21.2164L18.6334 1.46253ZM20.1451 2.05137C12.8501 9.21186 6.82656 17.2539 2.30652 21.8293L20.1451 2.05137ZM23.2147 3.25136C16.9082 9.04036 8.83721 18.2013 3.45031 27.9459L23.2147 3.25136ZM24.0108 2.74415C17.7364 8.8254 12.6795 16.2435 2.35533 26.1613L24.0108 2.74415ZM27.0291 2.26512C21.8335 9.47521 15.1263 19.2973 1.95891 30.0121L27.0291 2.26512ZM28.2923 2.66354C18.5776 13.1216 9.12628 22.7471 2.59931 31.2204L28.2923 2.66354ZM30.6624 3.69056C24.7098 7.90233 20.5794 15.2617 2.88901 34.829L30.6624 3.69056ZM32.5585 2.66593C21.3168 14.122 11.8058 25.4924 2.68687 36.7968L32.5585 2.66593ZM35.0941 2.53817C26.1306 13.5699 18.4918 24.589 3.01244 40.5722L35.0941 2.53817ZM36.4542 2.45031C26.6346 12.7804 16.8767 23.8487 2.12098 41.2089L36.4542 2.45031ZM39.4882 1.0335C29.3868 14.3696 17.6798 28.8344 3.81806 44.7702L39.4882 1.0335ZM40.0271 2.78796C25.1357 19.1657 10.0329 37.0937 1.62231 45.5771L40.0271 2.78796ZM44.2114 2.51476C28.0619 20.2204 14.0551 37.4586 2.09554 51.3357L44.2114 2.51476ZM44.3384 1.82974C28.1682 19.9558 13.1998 38.4581 2.28196 50.4135L44.3384 1.82974ZM47.8663 2.05886C30.8288 19.9892 16.0337 38.6262 3.84782 55.3894L47.8663 2.05886ZM47.9886 1.71662C36.1735 15.5605 24.4356 28.9547 2.19345 54.7698L47.9886 1.71662ZM53.5994 1.64926C33.8902 24.2974 11.8081 45.3641 1.76544 57.917L53.5994 1.64926ZM52.5355 2.56348C36.3758 21.5036 19.3247 39.2092 2.65157 59.6107L52.5355 2.56348ZM56.1071 1.74158C35.9717 25.4205 14.9352 50.2762 3.1987 64.6785L56.1071 1.74158ZM55.4224 2.8401C36.7726 24.2499 18.4199 45.7509 2.43774 64.552L55.4224 2.8401ZM59.7563 1.27698C47.3537 15.3775 35.9317 28.395 2.94208 70.0837L59.7563 1.27698ZM59.8673 1.70017C46.7231 17.0023 34.9095 30.6699 2.09544 69.1999L59.8673 1.70017ZM65.0984 3.34442C51.2732 19.3388 35.7893 36.5542 2.93932 72.9651L65.0984 3.34442ZM63.939 2.12658C45.1934 23.7877 26.3808 45.4827 1.6989 73.5666L63.939 2.12658ZM67.9015 3.25506C54.3734 20.0943 38.0416 35.3022 1.9409 78.3748L67.9015 3.25506ZM68.2809 2.20352C41.4805 32.3343 15.7511 63.0854 2.35185 77.3121L68.2809 2.20352ZM70.8433 1.90024C54.7148 20.883 39.1299 41.5353 4.44251 79.0237L70.8433 1.90024ZM72.6581 2.3721C54.1292 22.961 36.473 43.5786 6.06357 78.3184L72.6581 2.3721ZM77.8918 2.23307C58.3265 20.9721 42.3899 39.5684 11.1977 77.2528L77.8918 2.23307ZM76.8818 2.97921C57.4235 23.9615 39.0099 45.9766 9.68228 77.8606L76.8818 2.97921ZM78.3143 5.24463C56.7855 28.8165 33.792 55.5711 13.9793 78.8706L78.3143 5.24463ZM78.4001 4.10054C60.3103 25.421 42.5761 44.7772 14.008 79.0542L78.4001 4.10054ZM78.571 9.26689C57.8759 32.1196 37.336 56.1012 18.9272 77.3647L78.571 9.26689ZM79.4504 9.00597C59.2229 30.4584 39.4098 52.3757 18.026 79.0173L79.4504 9.00597ZM78.4551 14.9741C57.5459 39.5298 32.9685 66.5687 22.5932 79.1683L78.4551 14.9741ZM78.4385 12.8502C64.2082 31.5004 49.2474 48.9492 22.6198 77.9683L78.4385 12.8502ZM80 17.7818C67.3387 31.3266 57.1836 41.7074 24.793 78.595L80 17.7818ZM79.516 18.3589C64.5711 34.2334 50.2583 49.6259 26.014 79.2461L79.516 18.3589ZM78.5473 24.3094C67.3959 35.5144 58.0511 48.165 31.576 77.7326L78.5473 24.3094ZM79.3712 22.8162C68.841 34.0609 58.2772 46.5704 29.987 78.5414L79.3712 22.8162ZM78.7206 28.9363C66.9863 44.2844 51.3535 60.1724 35.3069 77.131L78.7206 28.9363ZM78.5077 27.6182C68.8355 37.7559 60.8116 48.3972 34.2747 77.9107L78.5077 27.6182ZM78.4115 31.9623C70.9706 42.5661 60.8045 51.6106 39.5529 77.5712L78.4115 31.9623ZM78.0379 32.0028C66.7621 46.4634 52.7773 61.6602 38.4434 78.5969L78.0379 32.0028ZM79.522 37.6779C67.8772 50.9336 55.2556 63.551 43.6162 80L79.522 37.6779ZM78.2355 36.3691C64.4299 53.7655 49.5579 69.1405 42.3452 78.7939L78.2355 36.3691ZM79.8335 41.0859C70.3781 50.7142 60.4881 62.7758 45.125 77.6759L79.8335 41.0859ZM79.0274 41.0105C66.9558 55.3313 53.7791 69.9506 46.323 78.3955L79.0274 41.0105ZM77.706 45.7977C68.1459 57.6141 57.8214 69.7587 49.5297 78.8123L77.706 45.7977ZM79.2765 46.1918C71.6793 55.6701 63.0373 63.8386 51.1439 79.0539L79.2765 46.1918ZM78.8341 50.6176C71.2358 59.724 63.4948 69.9034 53.4519 78.5598L78.8341 50.6176ZM78.8983 50.0829C71.3274 59.78 62.3821 70.6726 54.6861 78.421L78.8983 50.0829ZM79.1009 54.0445C73.0219 63.8094 64.7773 69.7349 59.5927 78.9977L79.1009 54.0445ZM79.4921 54.7208C71.9802 63.4434 63.2395 72.5983 58.9258 77.7401L79.4921 54.7208ZM77.5266 59.7548C74.0319 65.2544 69.7744 70.27 61.917 77.6708L77.5266 59.7548ZM78.6092 60.3983C74.6726 66.0693 69.0786 71.2352 63.4024 78.6631L78.6092 60.3983ZM79.1004 65.4799C72.7648 70.6889 67.9638 75.3685 65.2658 77.6341L79.1004 65.4799ZM78.6937 65.2071C76.9475 66.721 74.2891 70.69 66.8 78.0886L78.6937 65.2071ZM78.3826 70.4333C75.7657 72.1423 72.5241 74.8837 70.643 78.5069L78.3826 70.4333ZM78.283 68.8444C75.6218 72.6852 73.0024 77.0003 70.5358 78.9554L78.283 68.8444ZM79.0737 73.8067C77.6025 75.2758 77.1795 76.5192 75.0897 78.3302L79.0737 73.8067Z" stroke="#F5F5F5" stroke-width="0.382248"/>
<path d="M2.28942 78.0207C1.54717 49.3242 1.60721 21.6092 1.74563 2.47477M1 1.72221C27.5364 1.26374 51.4474 2.34042 78.7549 1.76054L1 1.72221ZM1.87473 1.68008C29.9439 1.3351 58.6873 1.93388 78.4822 3.02038L1.87473 1.68008ZM79.055 2.13704C78.3545 30.0845 80.4195 57.4499 78.3647 77.9015L79.055 2.13704ZM78.7346 2.79205C77.9588 30.2955 78.0155 57.6368 78.2416 78.0046L78.7346 2.79205ZM79.4415 79.7059C54.4808 80.486 31.4342 78.2626 1.48488 79.1728L79.4415 79.7059ZM78.2043 78.4711C53.8842 78.477 29.6372 78.6486 1.60625 78.5002L78.2043 78.4711ZM1.42453 79.8828C2.85995 49.4139 3.71425 22.5729 2.87122 1.89892L1.42453 79.8828Z" stroke="#F9F9F9" stroke-width="0.764495"/>
</svg>
