<svg width="24" height="24" viewBox="0 0 24 24" fill="none" xmlns="http://www.w3.org/2000/svg">
<path fill-rule="evenodd" clip-rule="evenodd" d="M16.5108 14.6055C16.403 14.504 16.2972 14.4008 16.1934 14.2959C15.7653 13.8632 15.0541 13.8399 14.6412 14.2872C14.073 14.9029 13.0647 14.7616 12.6877 14.0133L12.6569 13.9523L11.037 10.7373L11.0062 10.6762C10.6292 9.92801 11.1156 9.03355 11.9486 8.94326C12.5221 8.88108 12.9017 8.32082 12.8003 7.7529C12.7575 7.51303 12.7216 7.27136 12.6929 7.02822C12.6355 6.54295 12.6071 6.05689 12.6071 5.57246C12.607 4.77374 11.9218 4.10229 11.1324 4.22368L9.05194 4.54361C8.70946 4.59628 8.4263 4.84309 8.34682 5.18038C7.67805 8.01886 8.03073 11.0022 9.34296 13.6065C10.6552 16.2108 12.843 18.2694 15.5222 19.421C15.8408 19.5579 16.2079 19.4771 16.4542 19.233L18.0304 17.671C18.6048 17.1017 18.4616 16.1369 17.8034 15.6669C17.3513 15.3441 16.9193 14.9898 16.5108 14.6055Z" fill="#555555"/>
</svg>
