<svg width="24" height="24" viewBox="0 0 24 24" fill="none" xmlns="http://www.w3.org/2000/svg">
<path fill-rule="evenodd" clip-rule="evenodd" d="M11 12C12.6569 12 14 10.6569 14 9C14 7.34315 12.6569 6 11 6C9.34315 6 8 7.34315 8 9C8 10.6569 9.34315 12 11 12ZM11 12C14.3137 12 17 14.6863 17 18V21H5V18C5 14.6863 7.68629 12 11 12Z" fill="#C4C4C4"/>
<path fill-rule="evenodd" clip-rule="evenodd" d="M16 9C16 10.0239 15.6153 10.9579 14.9826 11.6654C17.3569 12.7853 19 15.2008 19 18V21C19 21.5523 18.5523 22 18 22H6C5.44772 22 5 21.5523 5 21V18C5 15.2008 6.64307 12.7853 9.01739 11.6654C8.38468 10.9579 8 10.0239 8 9C8 6.79086 9.79086 5 12 5C14.2091 5 16 6.79086 16 9ZM15 9C15 10.6569 13.6569 12 12 12C10.3431 12 9 10.6569 9 9C9 7.34315 10.3431 6 12 6C13.6569 6 15 7.34315 15 9ZM12 12C8.68629 12 6 14.6863 6 18V21H18V18C18 14.6863 15.3137 12 12 12Z" fill="#555555"/>
</svg>
