<svg width="1568" height="2353" viewBox="0 0 1568 2353" fill="none" xmlns="http://www.w3.org/2000/svg">
<path d="M1547.56 17.7526C1558.38 608.416 1577.91 1204.95 1538.12 2344.41L1547.56 17.7526ZM1552.82 2342.63C986.448 2338.61 458.805 2334.96 24.3517 2347L1552.82 2342.63ZM1541.31 2342.68C938.247 2338.95 344.618 2336.91 19.2727 2346.26L1541.31 2342.68ZM33.5261 2343.33C74.9876 1862.94 76.4939 1370.69 5.24182 13.0997L33.5261 2343.33ZM15.2843 2344.28C25.1916 1769.08 14.6913 1193.83 19.4196 16.8828L15.2843 2344.28ZM26.4055 5.99993C481.033 16.7893 933.943 14.0018 1525.99 19.1621L26.4055 5.99993ZM22.2223 14.3887C555.829 11.0254 1121.24 7.68561 1537.82 14.8006Z" fill="white"/>
<path d="M22.2223 14.3887C555.829 11.0254 1121.24 7.68561 1537.82 14.8006M1547.56 17.7526C1558.38 608.416 1577.91 1204.95 1538.12 2344.41L1547.56 17.7526ZM1552.82 2342.63C986.448 2338.61 458.805 2334.96 24.3517 2347L1552.82 2342.63ZM1541.31 2342.68C938.247 2338.95 344.618 2336.91 19.2727 2346.26L1541.31 2342.68ZM33.5261 2343.33C74.9876 1862.94 76.4939 1370.69 5.24182 13.0997L33.5261 2343.33ZM15.2843 2344.28C25.1916 1769.08 14.6913 1193.83 19.4196 16.8828L15.2843 2344.28ZM26.4055 5.99993C481.033 16.7893 933.943 14.0018 1525.99 19.1621L26.4055 5.99993Z" stroke="#262626" stroke-width="10.01"/>
</svg>
