<svg width="1455" height="2264" viewBox="0 0 1455 2264" fill="none" xmlns="http://www.w3.org/2000/svg">
<path d="M1454 9.15517L1429.45 2262.85M1429.45 2262.85C1081.66 2259.72 731.81 2259.13 18.3578 2261.97L1429.45 2262.85ZM16.7469 2262.5C37.1062 1603.28 37.3544 944.303 17.6147 6.63569M18.2007 8.48805C368.889 0.193511 722.122 1.19555 1430.65 7.07133L18.2007 8.48805ZM17.3389 6.71987C428.961 -1.44704 843.059 -0.706737 1429.6 7.90765L17.3389 6.71987ZM1431.43 6.98967C1452 597.492 1451.74 1338.54 1431.59 2263L1431.43 6.98967ZM1430.59 2262.75C900.834 2253.63 372.038 2253.8 16.6194 2262.02L1430.59 2262.75ZM15.5202 2262.19C-3.08675 1433.79 -4.64439 605.653 15.7093 7.38493L15.5202 2262.19Z" stroke="black"/>
</svg>
