<svg width="85" height="85" viewBox="0 0 85 85" fill="none" xmlns="http://www.w3.org/2000/svg">
<path d="M80.723 76.1635C79.488 77.9266 77.9977 79.5097 76.5964 80.5829M5.52164 4.48088C5.03236 4.89262 4.73108 5.27068 4.39641 5.64832L5.52164 4.48088ZM5.49595 4.3075C5.12947 4.69107 4.66501 5.22733 4.30879 5.61747L5.49595 4.3075ZM9.93994 4.09261C6.9621 6.88221 5.13412 8.38633 4.15391 10.7112L9.93994 4.09261ZM9.45371 4.45418C7.31131 6.4696 5.18487 9.13382 4.32069 10.0716L9.45371 4.45418ZM14.6821 3C12.406 6.10862 9.77772 10.1563 5.04742 15.494L14.6821 3ZM13.6345 4.4019C10.4075 6.49533 8.54821 10.0204 5.03316 14.9221L13.6345 4.4019ZM17.3104 4.03482C13.6263 7.36684 11.1973 13.0032 3.86514 20.4858L17.3104 4.03482ZM17.1861 4.11275C13.0763 9.52392 7.58287 15.2184 3.73259 19.3494L17.1861 4.11275ZM20.6334 3.46412C18.3141 8.93803 15.7125 11.7292 3.77001 23.2857L20.6334 3.46412ZM22.1451 4.05497C14.8501 11.24 8.82656 19.3096 4.30652 23.9007L22.1451 4.05497ZM25.2147 5.25908C18.9082 11.0679 10.8372 20.2603 5.45031 30.0383L25.2147 5.25908ZM26.0108 4.75013C19.7364 10.8522 14.6795 18.2958 4.35533 28.2475L26.0108 4.75013ZM29.0291 4.26946C23.8335 11.5043 17.1263 21.36 3.95891 32.1116L29.0291 4.26946ZM30.2923 4.66925C20.5776 15.1632 11.1263 24.8217 4.59931 33.324L30.2923 4.66925ZM32.6624 5.69978C26.7098 9.926 22.5794 17.3105 4.88901 36.945L32.6624 5.69978ZM34.5585 4.67164C23.3168 16.167 13.8058 27.5764 4.68687 38.9195L34.5585 4.67164ZM37.0941 4.54344C28.1306 15.613 20.4918 26.6699 5.01244 42.7079L37.0941 4.54344ZM38.4542 4.45529C28.6346 14.8208 18.8767 25.9271 4.12098 43.3468L38.4542 4.45529ZM41.4882 3.03362C31.3868 16.4154 19.6798 30.9298 5.81806 46.9203L41.4882 3.03362ZM42.0271 4.79409C27.1357 21.228 12.0329 39.2175 3.62231 47.7299L42.0271 4.79409ZM46.2114 4.51995C30.0619 22.2863 16.0551 39.5836 4.09554 53.5082L46.2114 4.51995ZM46.3384 3.83258C30.1682 22.0208 15.1998 40.5865 4.28196 52.5829L46.3384 3.83258ZM49.8663 4.06249C32.8288 22.0543 18.0337 40.7552 5.84782 57.5759L49.8663 4.06249ZM49.9886 3.71908C38.1735 17.6105 26.4356 31.0505 4.19345 56.9541L49.9886 3.71908ZM55.5994 3.65149C35.8902 26.3773 13.8081 47.5162 3.76544 60.1121L55.5994 3.65149ZM54.5355 4.56885C38.3758 23.5739 21.3247 41.3402 4.65157 61.8117L54.5355 4.56885ZM58.1071 3.74412C37.9717 27.5042 16.9352 52.4452 5.1987 66.8968L58.1071 3.74412ZM57.4224 4.84641C38.7726 26.3296 20.4199 47.9043 4.43774 66.7699L57.4224 4.84641ZM61.7563 3.27793C49.3537 17.4268 37.9317 30.4889 4.94208 72.3205L61.7563 3.27793ZM61.8673 3.70257C48.7231 19.0571 36.9095 32.7717 4.09544 71.4337L61.8673 3.70257ZM67.0984 5.35245C53.2732 21.4017 37.7893 38.6761 4.93932 75.2118L67.0984 5.35245ZM65.939 4.13044C47.1934 25.8658 28.3808 47.6352 3.6989 75.8154L65.939 4.13044ZM69.9015 5.26279C56.3734 22.1597 40.0416 37.4198 3.9409 80.6401L69.9015 5.26279ZM70.2809 4.20764C43.4805 34.4417 17.7511 65.2982 4.35185 79.5737L70.2809 4.20764ZM72.8433 3.90333C56.7148 22.9512 41.1299 43.6743 6.44251 81.2912L72.8433 3.90333ZM74.6581 4.37681C56.1292 25.0363 38.473 45.7246 8.06357 80.5835L74.6581 4.37681ZM79.8918 4.2373C60.3265 23.0406 44.3899 41.7006 13.1977 79.5143L79.8918 4.2373ZM78.8818 4.986C59.4235 26.0403 41.0099 48.1308 11.6823 80.1241L78.8818 4.986ZM80.3143 7.25919C58.7855 30.9118 35.792 57.7582 15.9793 81.1376L80.3143 7.25919ZM80.4001 6.11117C62.3103 27.5047 44.5761 46.9273 16.008 81.3218L80.4001 6.11117ZM80.571 11.2952C59.8759 34.2263 39.336 58.2901 20.9272 79.6265L80.571 11.2952ZM81.4504 11.0334C61.2229 32.5594 41.4098 54.5518 20.026 81.2848L81.4504 11.0334ZM80.4551 17.022C59.5459 41.6619 34.9685 68.7935 24.5932 81.4363L80.4551 17.022ZM80.4385 14.8908C66.2082 33.6049 51.2474 51.1136 24.6198 80.2321L80.4385 14.8908ZM82 19.8393C69.3387 33.4306 59.1836 43.8469 26.793 80.861L82 19.8393ZM81.516 20.4184C66.5711 36.3473 52.2583 51.7927 28.014 81.5144L81.516 20.4184ZM80.5473 26.3893C69.3959 37.6328 60.0511 50.3267 33.576 79.9957L80.5473 26.3893ZM81.3712 24.891C70.841 36.1743 60.2772 48.7266 31.987 80.8072L81.3712 24.891ZM80.7206 31.0321C68.9863 46.4328 53.3535 62.3752 37.3069 79.392L80.7206 31.0321ZM80.5077 29.7095C70.8355 39.8819 62.8116 50.5597 36.2747 80.1743L80.5077 29.7095ZM80.4115 34.0685C72.9706 44.7086 62.8045 53.7841 41.5529 79.8337L80.4115 34.0685ZM80.0379 34.1091C68.7621 48.6192 54.7773 63.8682 40.4434 80.863L80.0379 34.1091ZM81.522 39.8037C69.8772 53.1048 57.2556 65.7655 45.6162 82.2709L81.522 39.8037ZM80.2355 38.4904C66.4299 55.9464 51.5579 71.3741 44.3452 81.0606L80.2355 38.4904ZM81.8335 43.2233C72.3781 52.8847 62.4881 64.9876 47.125 79.9388L81.8335 43.2233ZM81.0274 43.1477C68.9558 57.5176 55.7791 72.187 48.323 80.6609L81.0274 43.1477ZM79.706 47.9513C70.1459 59.8082 59.8214 71.9944 51.5297 81.0791L79.706 47.9513ZM81.2765 48.3467C73.6793 57.8576 65.0373 66.0541 53.1439 81.3215L81.2765 48.3467ZM80.8341 52.7877C73.2358 61.9253 65.4948 72.1397 55.4519 80.8258L80.8341 52.7877ZM80.8983 52.2512C73.3274 61.9816 64.3821 72.9115 56.6861 80.6864L80.8983 52.2512ZM81.1009 56.2264C75.0219 66.0247 66.7773 71.9705 61.5927 81.2651L81.1009 56.2264ZM81.4921 56.905C73.9802 65.6575 65.2395 74.8438 60.9258 80.0032L81.4921 56.905ZM79.5266 61.9563C76.0319 67.4747 71.7744 72.5075 63.917 79.9337L79.5266 61.9563ZM80.6092 62.6019C76.6726 68.2924 71.0786 73.476 65.4024 80.9294L80.6092 62.6019ZM81.1004 67.701C74.7648 72.9278 69.9638 77.6234 67.2658 79.8969L81.1004 67.701ZM80.6937 67.4273C78.9475 68.9463 76.2891 72.9289 68.8 80.3529L80.6937 67.4273ZM80.3826 72.6713C77.7657 74.3862 74.5241 77.137 72.643 80.7727L80.3826 72.6713ZM80.283 71.077C77.6218 74.931 75.0024 79.2608 72.5358 81.2227L80.283 71.077ZM81.0737 76.0563C79.6025 77.5305 79.1795 78.7781 77.0897 80.5953L81.0737 76.0563Z" stroke="#555555" stroke-width="0.382248"/>
<path d="M4.28942 80.2847C3.54717 51.4899 3.60721 23.6798 3.74563 4.47978M3 3.72464C29.5364 3.2646 53.4474 4.34497 80.7549 3.76311L3 3.72464ZM3.87473 3.68237C31.9439 3.33621 60.6873 3.93704 80.4822 5.02726L3.87473 3.68237ZM81.055 4.14089C80.3545 32.1841 82.4195 59.6434 80.3647 80.1651L81.055 4.14089ZM80.7346 4.79815C79.9588 32.3959 80.0155 59.8309 80.2416 80.2686L80.7346 4.79815ZM81.4415 81.9757C56.4808 82.7585 33.4342 80.5275 3.48488 81.4408L81.4415 81.9757ZM80.2043 80.7366C55.8842 80.7426 31.6372 80.9148 3.60625 80.7659L80.2043 80.7366ZM3.42453 82.1533C4.85995 51.5798 5.71425 24.6468 4.87122 3.90196L3.42453 82.1533Z" stroke="black" stroke-width="0.764495"/>
<path d="M27.3696 67.0407L24.7209 64.888L54.2975 40.0204L24.7209 15.227L27.3696 13L59.5065 40.0204L27.3696 67.0407Z" fill="#221F20"/>
</svg>
