<svg width="172" height="35" viewBox="0 0 172 35" fill="none" xmlns="http://www.w3.org/2000/svg">
<path d="M7.7 17.576H9.52C11.536 17.576 12.544 16.6987 12.544 14.944C12.544 13.1893 11.536 12.312 9.52 12.312H7.7L7.7 17.576ZM7.7 29H2.212L2.212 7.888L10.948 7.888C13.3187 7.888 15.1293 8.504 16.38 9.736C17.6493 10.968 18.284 12.704 18.284 14.944C18.284 17.184 17.6493 18.92 16.38 20.152C15.1293 21.384 13.3187 22 10.948 22H7.7L7.7 29ZM25.7806 5.76L25.7806 29H20.7126L20.7126 5.76L25.7806 5.76ZM33.9478 21.776C33.9478 22.2427 34.0318 22.6813 34.1998 23.092C34.3678 23.484 34.5918 23.8293 34.8718 24.128C35.1705 24.4267 35.5158 24.66 35.9078 24.828C36.3185 24.996 36.7571 25.08 37.2238 25.08C37.6718 25.08 38.0918 24.996 38.4838 24.828C38.8945 24.66 39.2398 24.4267 39.5198 24.128C39.8185 23.8293 40.0518 23.484 40.2198 23.092C40.4065 22.7 40.4998 22.28 40.4998 21.832C40.4998 21.384 40.4065 20.964 40.2198 20.572C40.0518 20.1613 39.8185 19.8067 39.5198 19.508C39.2398 19.2093 38.8945 18.976 38.4838 18.808C38.0918 18.64 37.6718 18.556 37.2238 18.556C36.7571 18.556 36.3185 18.64 35.9078 18.808C35.5158 18.976 35.1705 19.2093 34.8718 19.508C34.5918 19.8067 34.3678 20.152 34.1998 20.544C34.0318 20.9173 33.9478 21.328 33.9478 21.776ZM40.3318 14.636L45.4278 14.636L45.4278 29H40.3318V27.404C39.2491 28.7667 37.7838 29.448 35.9358 29.448C34.8905 29.448 33.9291 29.2613 33.0518 28.888C32.1745 28.496 31.4091 27.9547 30.7558 27.264C30.1025 26.5733 29.5891 25.7613 29.2158 24.828C28.8611 23.8947 28.6838 22.8773 28.6838 21.776C28.6838 20.7493 28.8611 19.7787 29.2158 18.864C29.5705 17.9307 30.0651 17.1187 30.6998 16.428C31.3345 15.7373 32.0905 15.196 32.9678 14.804C33.8451 14.3933 34.8158 14.188 35.8798 14.188C37.6718 14.188 39.1558 14.8133 40.3318 16.064V14.636ZM58.3966 18.332C57.4633 17.8467 56.5486 17.604 55.6526 17.604C55.186 17.604 54.8033 17.6973 54.5046 17.884C54.2246 18.0707 54.0846 18.3227 54.0846 18.64C54.0846 18.808 54.1033 18.948 54.1406 19.06C54.1966 19.1533 54.2993 19.2467 54.4486 19.34C54.6166 19.4333 54.85 19.5173 55.1486 19.592C55.466 19.6667 55.8766 19.76 56.3806 19.872C57.7806 20.152 58.826 20.656 59.5166 21.384C60.2073 22.0933 60.5526 23.008 60.5526 24.128C60.5526 24.968 60.3846 25.724 60.0486 26.396C59.7126 27.068 59.246 27.6373 58.6486 28.104C58.0513 28.552 57.3326 28.8973 56.4926 29.14C55.6526 29.4013 54.7286 29.532 53.7206 29.532C51.7793 29.532 49.866 28.9813 47.9806 27.88L49.8286 24.296C51.2473 25.2667 52.5913 25.752 53.8606 25.752C54.3273 25.752 54.71 25.6493 55.0086 25.444C55.3073 25.2387 55.4566 24.9773 55.4566 24.66C55.4566 24.4733 55.4286 24.324 55.3726 24.212C55.3353 24.0813 55.242 23.9693 55.0926 23.876C54.9433 23.764 54.7193 23.6707 54.4206 23.596C54.1406 23.5027 53.7673 23.4093 53.3006 23.316C51.7326 22.9987 50.6313 22.532 49.9966 21.916C49.3806 21.2813 49.0726 20.4133 49.0726 19.312C49.0726 18.5093 49.222 17.7907 49.5206 17.156C49.8193 16.5027 50.2486 15.952 50.8086 15.504C51.3686 15.056 52.0406 14.7107 52.8246 14.468C53.6273 14.2253 54.514 14.104 55.4846 14.104C57.0713 14.104 58.6113 14.412 60.1046 15.028L58.3966 18.332ZM69.1615 18.864V29H64.0935V18.864H62.4135V14.636H64.0935V10.324L69.1615 10.324V14.636H72.0455V18.864H69.1615ZM79.4017 14.636V29H74.3337V14.636H79.4017ZM73.9977 9.12C73.9977 8.728 74.0723 8.364 74.2217 8.028C74.371 7.67333 74.5763 7.36533 74.8377 7.104C75.099 6.84266 75.3977 6.63733 75.7337 6.488C76.0883 6.33867 76.4617 6.264 76.8537 6.264C77.2457 6.264 77.6097 6.33867 77.9457 6.488C78.3003 6.63733 78.6083 6.84266 78.8697 7.104C79.131 7.36533 79.3363 7.67333 79.4857 8.028C79.635 8.364 79.7097 8.728 79.7097 9.12C79.7097 9.512 79.635 9.88533 79.4857 10.24C79.3363 10.576 79.131 10.8747 78.8697 11.136C78.6083 11.3973 78.3003 11.6027 77.9457 11.752C77.6097 11.9013 77.2457 11.976 76.8537 11.976C76.4617 11.976 76.0883 11.9013 75.7337 11.752C75.3977 11.6027 75.099 11.3973 74.8377 11.136C74.5763 10.8747 74.371 10.576 74.2217 10.24C74.0723 9.88533 73.9977 9.512 73.9977 9.12ZM93.7009 19.284C92.8236 18.6867 91.9369 18.388 91.0409 18.388C90.5556 18.388 90.0982 18.472 89.6689 18.64C89.2582 18.808 88.8942 19.0507 88.5769 19.368C88.2596 19.6667 88.0076 20.0307 87.8209 20.46C87.6529 20.8707 87.5689 21.3373 87.5689 21.86C87.5689 22.364 87.6529 22.8307 87.8209 23.26C88.0076 23.6707 88.2502 24.0347 88.5489 24.352C88.8662 24.6507 89.2396 24.884 89.6689 25.052C90.0982 25.22 90.5556 25.304 91.0409 25.304C91.9929 25.304 92.8796 24.9773 93.7009 24.324V28.636C92.4502 29.1773 91.2649 29.448 90.1449 29.448C89.0996 29.448 88.1009 29.2707 87.1489 28.916C86.2156 28.5613 85.3849 28.0573 84.6569 27.404C83.9476 26.732 83.3782 25.9387 82.9489 25.024C82.5196 24.0907 82.3049 23.0547 82.3049 21.916C82.3049 20.7773 82.5102 19.7413 82.9209 18.808C83.3316 17.856 83.8916 17.044 84.6009 16.372C85.3102 15.6813 86.1502 15.1493 87.1209 14.776C88.1102 14.384 89.1649 14.188 90.2849 14.188C91.5169 14.188 92.6556 14.4493 93.7009 14.972V19.284ZM118.063 21.16L115.599 14.132L113.135 21.16H118.063ZM119.519 25.332L111.679 25.332L110.419 29H104.567L112.603 7.888L118.595 7.888L126.631 29H120.779L119.519 25.332ZM128.857 14.636L133.925 14.636V16.988C134.466 16.1293 135.129 15.476 135.913 15.028C136.697 14.5613 137.612 14.328 138.657 14.328C138.788 14.328 138.928 14.328 139.077 14.328C139.245 14.328 139.432 14.3467 139.637 14.384V19.228C138.965 18.892 138.237 18.724 137.453 18.724C136.277 18.724 135.39 19.0787 134.793 19.788C134.214 20.4787 133.925 21.496 133.925 22.84V29H128.857V14.636ZM146.968 5.76V19.816L152.288 14.636L159.232 14.636L152.036 21.272L159.652 29H152.54L146.968 23.148V29H141.9V5.76L146.968 5.76Z" fill="#FCFDFE" style="mix-blend-mode:hard-light"/>
<rect x="162.444" y="25.2539" width="9.55556" height="4.55026" fill="#FCFDFE"/>
</svg>
