<svg width="249" height="21" viewBox="0 0 249 21" fill="none" xmlns="http://www.w3.org/2000/svg">
<path d="M8.764 20.336C7.196 20.336 5.69333 20.1307 4.256 19.72C2.81867 19.2907 1.66133 18.74 0.784 18.068L2.324 14.652C3.164 15.2493 4.15333 15.744 5.292 16.136C6.44933 16.5093 7.616 16.696 8.792 16.696C9.688 16.696 10.4067 16.612 10.948 16.444C11.508 16.2573 11.9187 16.0053 12.18 15.688C12.4413 15.3707 12.572 15.0067 12.572 14.596C12.572 14.0733 12.3667 13.6627 11.956 13.364C11.5453 13.0467 11.004 12.7947 10.332 12.608C9.66 12.4027 8.91333 12.216 8.092 12.048C7.28933 11.8613 6.47733 11.6373 5.656 11.376C4.85333 11.1147 4.116 10.7787 3.444 10.368C2.772 9.95733 2.22133 9.416 1.792 8.744C1.38133 8.072 1.176 7.21333 1.176 6.168C1.176 5.048 1.47467 4.03067 2.072 3.116C2.688 2.18267 3.60267 1.44533 4.816 0.903999C6.048 0.343999 7.588 0.0639997 9.436 0.0639997C10.668 0.0639997 11.8813 0.213333 13.076 0.511999C14.2707 0.791999 15.3253 1.22133 16.24 1.8L14.84 5.244C13.9253 4.72133 13.0107 4.33867 12.096 4.096C11.1813 3.83467 10.2853 3.704 9.408 3.704C8.53067 3.704 7.812 3.80667 7.252 4.012C6.692 4.21733 6.29067 4.488 6.048 4.824C5.80533 5.14133 5.684 5.51467 5.684 5.944C5.684 6.448 5.88933 6.85867 6.3 7.176C6.71067 7.47467 7.252 7.71733 7.924 7.904C8.596 8.09067 9.33333 8.27733 10.136 8.464C10.9573 8.65067 11.7693 8.86533 12.572 9.108C13.3933 9.35067 14.14 9.67733 14.812 10.088C15.484 10.4987 16.0253 11.04 16.436 11.712C16.8653 12.384 17.08 13.2333 17.08 14.26C17.08 15.3613 16.772 16.3693 16.156 17.284C15.54 18.1987 14.616 18.936 13.384 19.496C12.1707 20.056 10.6307 20.336 8.764 20.336ZM17.6035 20L26.3395 0.399999H30.8195L39.5835 20H34.8235L27.6555 2.696H29.4475L22.2515 20H17.6035ZM21.9715 15.8L23.1755 12.356H33.2555L34.4875 15.8H21.9715ZM41.617 20V0.399999H45.369L53.713 14.232H51.725L59.929 0.399999H63.653L63.709 20H59.453L59.425 6.924H60.209L53.657 17.928H51.613L44.921 6.924H45.873V20H41.617ZM77.0672 20.336C74.2858 20.336 72.1112 19.5613 70.5432 18.012C68.9752 16.4627 68.1912 14.2507 68.1912 11.376V0.399999H72.7272V11.208C72.7272 13.0747 73.1098 14.4187 73.8752 15.24C74.6405 16.0613 75.7138 16.472 77.0952 16.472C78.4765 16.472 79.5498 16.0613 80.3152 15.24C81.0805 14.4187 81.4632 13.0747 81.4632 11.208V0.399999H85.9432V11.376C85.9432 14.2507 85.1592 16.4627 83.5912 18.012C82.0232 19.5613 79.8485 20.336 77.0672 20.336ZM94.5976 8.296H104.034V11.824H94.5976V8.296ZM94.9336 16.36H105.602V20H90.4256V0.399999H105.238V4.04H94.9336V16.36ZM109.211 20V0.399999H113.747V16.304H123.575V20H109.211ZM140.479 20.336C138.911 20.336 137.408 20.1307 135.971 19.72C134.534 19.2907 133.376 18.74 132.499 18.068L134.039 14.652C134.879 15.2493 135.868 15.744 137.007 16.136C138.164 16.5093 139.331 16.696 140.507 16.696C141.403 16.696 142.122 16.612 142.663 16.444C143.223 16.2573 143.634 16.0053 143.895 15.688C144.156 15.3707 144.287 15.0067 144.287 14.596C144.287 14.0733 144.082 13.6627 143.671 13.364C143.26 13.0467 142.719 12.7947 142.047 12.608C141.375 12.4027 140.628 12.216 139.807 12.048C139.004 11.8613 138.192 11.6373 137.371 11.376C136.568 11.1147 135.831 10.7787 135.159 10.368C134.487 9.95733 133.936 9.416 133.507 8.744C133.096 8.072 132.891 7.21333 132.891 6.168C132.891 5.048 133.19 4.03067 133.787 3.116C134.403 2.18267 135.318 1.44533 136.531 0.903999C137.763 0.343999 139.303 0.0639997 141.151 0.0639997C142.383 0.0639997 143.596 0.213333 144.791 0.511999C145.986 0.791999 147.04 1.22133 147.955 1.8L146.555 5.244C145.64 4.72133 144.726 4.33867 143.811 4.096C142.896 3.83467 142 3.704 141.123 3.704C140.246 3.704 139.527 3.80667 138.967 4.012C138.407 4.21733 138.006 4.488 137.763 4.824C137.52 5.14133 137.399 5.51467 137.399 5.944C137.399 6.448 137.604 6.85867 138.015 7.176C138.426 7.47467 138.967 7.71733 139.639 7.904C140.311 8.09067 141.048 8.27733 141.851 8.464C142.672 8.65067 143.484 8.86533 144.287 9.108C145.108 9.35067 145.855 9.67733 146.527 10.088C147.199 10.4987 147.74 11.04 148.151 11.712C148.58 12.384 148.795 13.2333 148.795 14.26C148.795 15.3613 148.487 16.3693 147.871 17.284C147.255 18.1987 146.331 18.936 145.099 19.496C143.886 20.056 142.346 20.336 140.479 20.336ZM151.894 20V0.399999H155.646L163.99 14.232H162.002L170.206 0.399999H173.93L173.986 20H169.73L169.702 6.924H170.486L163.934 17.928H161.89L155.198 6.924H156.15V20H151.894ZM176.06 20L184.797 0.399999H189.277L198.041 20H193.281L186.113 2.696H187.905L180.709 20H176.06ZM180.428 15.8L181.633 12.356H191.713L192.945 15.8H180.428ZM200.074 20V0.399999H204.61V16.304H214.438V20H200.074ZM216.972 20V0.399999H221.508V16.304H231.336V20H216.972ZM240.202 20.336C238.634 20.336 237.131 20.1307 235.694 19.72C234.256 19.2907 233.099 18.74 232.222 18.068L233.762 14.652C234.602 15.2493 235.591 15.744 236.73 16.136C237.887 16.5093 239.054 16.696 240.23 16.696C241.126 16.696 241.844 16.612 242.386 16.444C242.946 16.2573 243.356 16.0053 243.618 15.688C243.879 15.3707 244.01 15.0067 244.01 14.596C244.01 14.0733 243.804 13.6627 243.394 13.364C242.983 13.0467 242.442 12.7947 241.77 12.608C241.098 12.4027 240.351 12.216 239.53 12.048C238.727 11.8613 237.915 11.6373 237.094 11.376C236.291 11.1147 235.554 10.7787 234.882 10.368C234.21 9.95733 233.659 9.416 233.23 8.744C232.819 8.072 232.614 7.21333 232.614 6.168C232.614 5.048 232.912 4.03067 233.51 3.116C234.126 2.18267 235.04 1.44533 236.254 0.903999C237.486 0.343999 239.026 0.0639997 240.874 0.0639997C242.106 0.0639997 243.319 0.213333 244.514 0.511999C245.708 0.791999 246.763 1.22133 247.678 1.8L246.278 5.244C245.363 4.72133 244.448 4.33867 243.534 4.096C242.619 3.83467 241.723 3.704 240.846 3.704C239.968 3.704 239.25 3.80667 238.69 4.012C238.13 4.21733 237.728 4.488 237.486 4.824C237.243 5.14133 237.122 5.51467 237.122 5.944C237.122 6.448 237.327 6.85867 237.738 7.176C238.148 7.47467 238.69 7.71733 239.362 7.904C240.034 8.09067 240.771 8.27733 241.574 8.464C242.395 8.65067 243.207 8.86533 244.01 9.108C244.831 9.35067 245.578 9.67733 246.25 10.088C246.922 10.4987 247.463 11.04 247.874 11.712C248.303 12.384 248.518 13.2333 248.518 14.26C248.518 15.3613 248.21 16.3693 247.594 17.284C246.978 18.1987 246.054 18.936 244.822 19.496C243.608 20.056 242.068 20.336 240.202 20.336Z" fill="#F4F6F2" style="mix-blend-mode:hard-light"/>
</svg>
