<svg width="133" height="22" viewBox="0 0 133 22" fill="none" xmlns="http://www.w3.org/2000/svg">
<path d="M0.84 19.656L1.232 16.016L2.184 16.072C2.184 17.0987 2.79067 17.9293 4.004 18.564C5.236 19.18 6.62667 19.488 8.176 19.488C9.744 19.488 10.92 19.2547 11.704 18.788C12.488 18.3027 12.88 17.696 12.88 16.968C12.88 15.736 12.2267 14.6347 10.92 13.664C10.3787 13.272 9.80933 12.9267 9.212 12.628C7.84933 11.9187 6.99067 11.4707 6.636 11.284C6.3 11.0787 5.91733 10.8733 5.488 10.668C5.05867 10.4627 4.65733 10.248 4.284 10.024C3.92933 9.78133 3.54667 9.492 3.136 9.156C2.20267 8.40933 1.736 7.57867 1.736 6.664C1.736 5.73067 1.89467 4.91867 2.212 4.228C2.548 3.53733 2.95867 2.996 3.444 2.604C3.948 2.212 4.536 1.88533 5.208 1.624C6.34667 1.21333 7.616 1.008 9.016 1.008C10.4347 1.008 11.7973 1.36267 13.104 2.072L12.768 5.32H11.816C11.816 3.56533 10.3413 2.688 7.392 2.688C6.02933 2.688 5.00267 2.90267 4.312 3.332C3.64 3.76133 3.304 4.34933 3.304 5.096C3.304 6.29067 5.24533 7.728 9.128 9.408C11.6853 10.5093 13.3187 11.732 14.028 13.076C14.3827 13.748 14.56 14.4853 14.56 15.288C14.56 17.2293 13.776 18.732 12.208 19.796C10.6587 20.86 8.78267 21.392 6.58 21.392C4.37733 21.392 2.464 20.8133 0.84 19.656ZM23.6265 21H16.5145V20.216H17.4665C18.0265 20.216 18.3905 20.104 18.5585 19.88C18.7265 19.656 18.8105 19.3387 18.8105 18.928V3.472C18.8105 3.06133 18.7265 2.744 18.5585 2.52C18.3905 2.296 18.0265 2.184 17.4665 2.184H16.5145V1.4H23.6265V2.184H22.5625C22.0025 2.184 21.6385 2.296 21.4705 2.52C21.3025 2.744 21.2185 3.06133 21.2185 3.472V18.928C21.2185 19.3387 21.3025 19.656 21.4705 19.88C21.6385 20.104 22.0025 20.216 22.5625 20.216H23.6265V21ZM30.5701 3.248V18.48C31.6528 19.1147 33.1274 19.432 34.9941 19.432C37.2154 19.432 39.1754 18.8253 40.8741 17.612C41.7328 16.996 42.4141 16.1373 42.9181 15.036C43.4221 13.9347 43.6741 12.6933 43.6741 11.312C43.6741 9.912 43.3941 8.67067 42.8341 7.588C42.2928 6.50533 41.5834 5.63733 40.7061 4.984C38.9328 3.64 37.1034 2.968 35.2181 2.968L30.5701 3.248ZM30.1781 1.4L37.1221 1.12C39.7168 1.12 41.7608 1.96 43.2541 3.64C44.7661 5.32 45.5221 7.56933 45.5221 10.388C45.5221 13.188 44.4394 15.6613 42.2741 17.808C40.1274 19.936 37.6074 21 34.7141 21H25.8661V20.16H26.8181C27.3781 20.16 27.7421 20.0573 27.9101 19.852C28.0781 19.6467 28.1621 19.3387 28.1621 18.928V3.472C28.1621 3.04267 28.0688 2.73467 27.8821 2.548C27.7141 2.34267 27.3594 2.24 26.8181 2.24H25.8661V1.4H30.1781ZM59.6431 20.72C59.6244 20.72 59.5777 20.72 59.5031 20.72C59.4284 20.72 59.1391 20.9067 58.6351 21.28L52.1951 4.424L50.8511 19.096C50.8137 19.3947 50.9537 19.6467 51.2711 19.852C51.5884 20.0573 52.0271 20.16 52.5871 20.16H53.7631V21H47.0431V20.16H47.9391C49.0217 20.16 49.6004 19.7493 49.6751 18.928L51.0751 3.472C51.1124 3.11733 50.9817 2.828 50.6831 2.604C50.4031 2.36133 49.9551 2.24 49.3391 2.24H48.4431V1.4H53.7071L59.6991 17.192L65.7471 1.4H70.7871V2.184H69.6671C68.7711 2.184 68.3231 2.52933 68.3231 3.22C68.3231 3.276 68.3231 3.34133 68.3231 3.416L69.6111 18.928C69.6484 19.3573 69.7511 19.6747 69.9191 19.88C70.1057 20.0667 70.4324 20.16 70.8991 20.16H72.0191V21H64.8511V20.16H65.8031C66.3257 20.16 66.6804 20.076 66.8671 19.908C67.0537 19.74 67.1471 19.5627 67.1471 19.376C67.1471 19.1707 67.1471 19.0213 67.1471 18.928L65.9151 4.256L59.6431 20.72ZM82.0916 21.56C79.6463 21.56 77.6023 20.6173 75.9596 18.732C74.3356 16.8467 73.5236 14.672 73.5236 12.208C73.5236 10.6773 73.8596 9.20267 74.5316 7.784C75.2036 6.36533 76.0623 5.16133 77.1076 4.172C78.1716 3.18267 79.3383 2.38933 80.6076 1.792C81.8956 1.19467 83.137 0.895998 84.3316 0.895998C86.7583 0.895998 88.793 1.83867 90.4356 3.724C92.0783 5.60933 92.8996 7.784 92.8996 10.248C92.8996 12.0773 92.405 13.8693 91.4156 15.624C90.4263 17.36 89.0823 18.788 87.3836 19.908C85.7036 21.0093 83.9396 21.56 82.0916 21.56ZM83.8276 19.432C85.8623 19.432 87.5703 18.6853 88.9516 17.192C90.3516 15.6987 91.0516 13.8507 91.0516 11.648C91.0516 9.44533 90.2396 7.46667 88.6156 5.712C87.0103 3.95733 85.0596 3.08 82.7636 3.08C80.8036 3.08 79.077 3.78933 77.5836 5.208C76.109 6.608 75.3716 8.288 75.3716 10.248C75.3716 12.7867 76.1463 14.952 77.6956 16.744C79.2636 18.536 81.3076 19.432 83.8276 19.432ZM103.474 21.56C101.029 21.56 98.9851 20.6173 97.3424 18.732C95.7184 16.8467 94.9064 14.672 94.9064 12.208C94.9064 10.6773 95.2424 9.20267 95.9144 7.784C96.5864 6.36533 97.4451 5.16133 98.4904 4.172C99.5544 3.18267 100.721 2.38933 101.99 1.792C103.278 1.19467 104.52 0.895998 105.714 0.895998C108.141 0.895998 110.176 1.83867 111.818 3.724C113.461 5.60933 114.282 7.784 114.282 10.248C114.282 12.0773 113.788 13.8693 112.798 15.624C111.809 17.36 110.465 18.788 108.766 19.908C107.086 21.0093 105.322 21.56 103.474 21.56ZM105.21 19.432C107.245 19.432 108.953 18.6853 110.334 17.192C111.734 15.6987 112.434 13.8507 112.434 11.648C112.434 9.44533 111.622 7.46667 109.998 5.712C108.393 3.95733 106.442 3.08 104.146 3.08C102.186 3.08 100.46 3.78933 98.9664 5.208C97.4918 6.608 96.7544 8.288 96.7544 10.248C96.7544 12.7867 97.5291 14.952 99.0784 16.744C100.646 18.536 102.69 19.432 105.21 19.432ZM131.409 21H116.401V20.16H117.353C117.913 20.16 118.277 20.0573 118.445 19.852C118.613 19.6467 118.697 19.3387 118.697 18.928V3.472C118.697 3.06133 118.613 2.75333 118.445 2.548C118.277 2.34267 117.913 2.24 117.353 2.24H116.401V1.4H123.513V2.24H122.449C121.889 2.24 121.525 2.34267 121.357 2.548C121.189 2.75333 121.105 3.06133 121.105 3.472V18.536C121.105 18.9467 121.189 19.264 121.357 19.488C121.525 19.712 121.889 19.824 122.449 19.824H127.769C128.759 19.824 129.627 19.5067 130.373 18.872C131.139 18.2187 131.521 17.584 131.521 16.968L132.361 17.136L131.409 21Z" fill="#FCFDFE"/>
</svg>
