<svg width="176" height="1087" viewBox="0 0 176 1087" fill="none" xmlns="http://www.w3.org/2000/svg">
<path d="M173.293 1079.03C172.915 1080.35 172.37 1081.13 171.97 1082.98M5.88472 2.85083C4.866 5.46599 4.3503 6.65454 3.82385 9.27679L5.88472 2.85083ZM5.77234 3.37787C5.17963 4.74741 4.80843 6.24431 3.83407 8.32648L5.77234 3.37787ZM8.05476 1.59357C7.65687 5.21835 5.64601 7.43109 4.16686 15.1744L8.05476 1.59357ZM7.94313 2.51709C6.06247 7.90097 4.98302 12.7007 3.72906 14.4802L7.94313 2.51709ZM9.72476 4.13672C9.0185 6.61981 6.9951 13.3513 4.06337 20.0175L9.72476 4.13672ZM9.80611 2.43127C7.68318 10.0201 5.90717 15.8083 4.00415 20.5441L9.80611 2.43127ZM11.1997 3.19202C9.89467 9.19644 7.09103 16.7572 3.29241 27.6417L11.1997 3.19202ZM11.7832 3.9856C9.94619 8.01985 8.57307 14.581 4.31178 26.9861L11.7832 3.9856ZM13.6707 3.91254C10.9595 12.4807 6.88497 26.2483 3.31663 34.601L13.6707 3.91254ZM13.8134 3.16852C11.1374 13.1894 7.44455 22.0898 4.2064 33.916L13.8134 3.16852ZM16.5374 1.95593C11.7534 16.3161 7.98536 28.259 3.29525 41.0685L16.5374 1.95593ZM16.3418 4.04004C12.2708 14.3609 8.93769 23.3896 3.58698 39.5287L16.3418 4.04004ZM17.8808 1.841C12.5818 20.7809 7.33817 35.0243 4.47467 45.2101L17.8808 1.841ZM18.0231 3.26819C12.8336 17.0518 7.79354 32.7017 4.23251 45.6646L18.0231 3.26819ZM20.3267 2.25043C17.1369 15.2637 12.8426 25.2188 3.60117 49.8401L20.3267 2.25043ZM20.4979 2.78809C14.821 18.8214 9.89615 32.8558 3.92564 52.3163L20.4979 2.78809ZM22.8309 4.55695C16.6247 18.9716 12.6587 31.7488 3.25003 55.8243L22.8309 4.55695ZM22.1589 2.54407C17.417 16.5035 12.6353 30.5878 4.11123 58.2914L22.1589 2.54407ZM23.966 5.04333C20.8483 15.3296 16.3583 26.9542 3.30981 64.9581L23.966 5.04333ZM24.1013 3.68524C20.0535 15.5155 15.2484 30.0441 3.83728 63.3621L24.1013 3.68524ZM27.0953 4.79358C20.2613 18.803 15.5449 35.897 4.42681 67.6234L27.0953 4.79358ZM26.3809 2.52502C17.4144 29.5554 8.34344 55.413 4.15872 68.8184L26.3809 2.52502ZM27.9224 4.80536C22.1758 24.6694 15.0147 43.5808 4.66008 76.2649L27.9224 4.80536ZM28.6306 3.83722C18.9925 30.1338 9.41455 59.6652 3.95401 75.2392L28.6306 3.83722ZM30.292 3.93042C21.5499 26.8261 13.6966 53.2165 4.04085 82.5316L30.292 3.93042ZM30.2536 4.00452C23.6644 23.8078 16.1518 45.9694 4.13545 82.7825L30.2536 4.00452ZM33.0709 3.39417C22.4788 33.8207 13.3515 62.9109 4.12845 87.8026L33.0709 3.39417ZM32.3724 2.1272C25.0927 24.5346 17.9859 45.6956 3.83747 87.8976L32.3724 2.1272ZM33.9779 2.36694C27.3352 23.3125 21.1579 41.584 4.66803 93.3242L33.9779 2.36694ZM34.1858 3.9986C26.5726 25.7175 18.3736 49.2917 4.31613 93.6809L34.1858 3.9986ZM37.1066 4.47516C27.9214 28.8578 18.8818 56.5529 4.61921 101.061L37.1066 4.47516ZM36.7957 3.04999C25.5528 37.6663 13.9657 70.5846 3.81288 99.3566L36.7957 3.04999ZM38.9886 4.86481C29.0602 31.9768 20.3375 57.9977 4.59973 106.872L38.9886 4.86481ZM38.4366 3.06549C29.7878 29.9912 21.2558 55.5675 4.05145 105.777L38.4366 3.06549ZM41.4843 2.71832C26.552 41.58 13.5124 85.4933 3.37887 112.519L41.4843 2.71832ZM40.3673 3.94519C27.3378 41.6858 13.8162 81.268 4.29626 111.529L40.3673 3.94519ZM42.9329 3.51416C27.6451 46.4307 14.0204 86.0026 3.29052 119.969L42.9329 3.51416ZM42.6242 2.45728C34.6276 26.8611 26.6117 51.5651 3.64223 118.373L42.6242 2.45728ZM44.2811 3.98328C29.2851 47.875 13.7717 97.3008 4.33164 123.441L44.2811 3.98328ZM44.9297 2.35468C29.8498 45.9872 14.7165 90.7626 4.28132 124.679L44.9297 2.35468ZM47.5269 3.44904C36.7685 30.7704 27.0329 60.3576 3.91674 131.438L47.5269 3.44904ZM46.9321 2.67285C35.9964 36.2472 24.8339 68.788 3.65017 130.012L46.9321 2.67285ZM49.4125 2.18219C32.2889 53.8412 14.8048 100.298 3.36752 137.522L49.4125 2.18219ZM49.2048 3.07593C38.4499 35.1543 27.939 66.4706 4.24102 137.16L49.2048 3.07593ZM50.9069 4.24695C32.9538 61.1937 13.8633 114.174 4.1871 143.483L50.9069 4.24695ZM50.7981 2.39215C38.4539 37.9668 26.3057 75.8728 4.01834 143.607L50.7981 2.39215ZM52.7827 3.73547C37.2917 49.7073 21.1731 96.9781 3.76728 149.457L52.7827 3.73547ZM53.3562 2.94177C36.702 53.807 19.6749 103.876 4.16364 148.146L53.3562 2.94177ZM55.6237 2.36334C40.0991 46.2265 26.8988 87.1242 3.34936 154.044L55.6237 2.36334ZM55.1374 2.95892C40.5403 46.1617 27.2943 86.6662 3.95118 155.878L55.1374 2.95892ZM57.5809 3.14722C43.8088 41.1987 30.55 83.247 3.92526 160.615L57.5809 3.14722ZM56.986 3.01025C36.8358 62.9398 17.0153 122.462 3.89234 160.503L56.986 3.01025ZM58.4691 1.07751C46.4574 42.1767 34.3182 75.7586 3.41917 166.944L58.4691 1.07751ZM59.2301 3.23462C37.1203 67.8696 15.6701 130.854 3.86017 166.671L59.2301 3.23462ZM60.6868 3.41174C47.8034 45.1015 33.4025 86.3816 4.36116 173.975L60.6868 3.41174ZM61.5973 2.6026C41.8381 60.0975 22.7483 117.238 3.90691 173.071L61.5973 2.6026ZM63.3436 1.09009C48.1417 53.3859 32.0418 97.8478 4.47486 180L63.3436 1.09009ZM63.5908 2.81519C41.7048 67.046 20.1891 129.515 4.0541 178.699L63.5908 2.81519ZM65.1574 1.42737C51.9683 40.8205 39.3358 81.852 3.69974 187.254L65.1574 1.42737ZM65.398 3.3783C45.7047 61.0578 26.8265 119.264 4.16837 185.839L65.398 3.3783ZM68.1008 3.89783C53.8568 46.9413 39.0126 87.8711 3.60647 189.672L68.1008 3.89783ZM67.4582 3.43939C54.1477 43.1659 39.6858 83.2877 4.23969 192.027L67.4582 3.43939ZM69.7395 4.79718C51.2596 63.0463 32.0412 118.829 4.20772 199.423L69.7395 4.79718ZM69.3528 2.82446C44.4631 72.3704 20.158 145.983 4.14831 197.448L69.3528 2.82446ZM71.2013 1.96332C48.7912 71.3772 24.7921 139.097 3.51282 204.427L71.2013 1.96332ZM71.7947 3.96948C49.2887 69.9416 27.3762 133.917 4.15172 203.553L71.7947 3.96948ZM73.7335 4.15417C56.67 54.6263 39.494 105.398 4.6334 207.878L73.7335 4.15417ZM73.3936 2.29346C47.094 86.2474 19.1216 167.098 4.23837 209.884L73.3936 2.29346ZM75.0508 3.39758C56.6745 57.1161 40.0726 108.574 3.24152 217.175L75.0508 3.39758ZM75.7718 3.22534C55.7283 66.0527 34.8944 126.719 3.66493 215.853L75.7718 3.22534ZM77.6087 1.75543C64.1387 46.2447 49.4139 92.9721 4.62016 221.716L77.6087 1.75543ZM77.6973 2.94104C62.9141 47.8114 47.1404 92.4209 3.78431 221.077L77.6973 2.94104ZM80.0497 4.02124C54.4924 76.2797 29.1459 150.173 3.61252 228.252L80.0497 4.02124ZM79.8348 3.31348C62.8265 53.24 45.1795 104.364 3.93907 227.934L79.8348 3.31348ZM81.4254 2.57745C51.597 92.2982 22.1847 182.636 4.02647 234.837L81.4254 2.57745ZM81.6284 3.72058C58.2091 74.2444 33.4837 146.005 4.07623 233.318L81.6284 3.72058ZM83.5745 2.89929C66.5679 59.7149 47.2174 112.485 3.87001 239.155L83.5745 2.89929ZM83.5538 3.44257C63.7694 64.3648 42.7505 125.244 3.90955 239.601L83.5538 3.44257ZM86.5222 4.7309C58.9279 83.0658 33.1689 161.834 3.7898 248.064L86.5222 4.7309ZM86.2091 3.44928C62.5803 74.9434 38.4227 145.425 4.0558 246.176L86.2091 3.44928ZM87.6274 1.25128C61.0054 89.8912 31.7495 172.461 3.35503 251.052L87.6274 1.25128ZM88.2177 2.88287C59.9878 88.8357 31.8443 171.55 4.10953 253.102L88.2177 2.88287ZM89.4972 2.56476C71.5946 53.957 54.0877 105.138 3.58433 259.814L89.4972 2.56476ZM90.0679 2.91125C57.2471 100.359 24.9475 196.521 4.12277 258.188L90.0679 2.91125ZM92.4754 4.75952C57.9275 101.457 25.6401 199.982 4.2238 264.721L92.4754 4.75952ZM91.8023 3.3504C65.441 77.0457 40.0936 152.961 3.68252 264.085L91.8023 3.3504ZM94.5062 4.4361C67.6837 83.7575 40.0468 164.76 3.91012 270.018L94.5062 4.4361ZM94.4771 2.09888C63.4289 95.6878 32.4071 189.058 4.17064 271.754L94.4771 2.09888ZM95.9095 3.05157C66.128 86.8975 37.8676 175.077 4.29097 277.84L95.9095 3.05157ZM96.5014 2.67407C69.6682 78.2583 44.053 156.54 3.68744 276.564L96.5014 2.67407ZM97.9534 2.17059C64.1472 104.043 30.2757 207.077 3.19516 283.653L97.9534 2.17059ZM98.1539 2.39746C61.2049 110.868 24.9843 218.415 3.55179 282.145L98.1539 2.39746ZM100.433 2.44415C73.2826 81.7899 46.3235 161.886 3.8965 288.093L100.433 2.44415ZM100.577 3.66772C66.9965 101.801 34.249 199.693 4.09496 289.487L100.577 3.66772ZM101.572 4.13287C76.3166 83.1075 50.3897 159.125 4.26978 294.078L101.572 4.13287ZM102.69 3.04193C79.5603 66.4038 58.0839 131.037 3.97407 295.163L102.69 3.04193ZM103.769 3.63977C78.5375 75.6606 53.9499 148.312 4.24215 299.457L103.769 3.63977ZM104.59 2.97888C78.7855 79.9683 53.7745 155.927 3.82763 300.611L104.59 2.97888ZM105.733 1.57751C76.4629 97.2593 45.4815 187.197 3.73852 309.036L105.733 1.57751ZM106.207 3.75012C84.457 69.5762 61.9681 136.651 3.6409 306.999L106.207 3.75012ZM108.351 3.69092C86.5251 69.435 65.2758 132.855 3.6006 315.472L108.351 3.69092ZM108.732 3.58441C73.5911 108.663 39.0745 213.295 3.99923 312.606L108.732 3.58441ZM111.264 1.21777C87.1827 65.9535 64.6137 136.023 4.61713 320.695L111.264 1.21777ZM110.18 2.52216C83.9672 85.8111 56.9883 167.325 4.24442 319.079L110.18 2.52216ZM113.053 3.94519C72.1528 122.821 32.3061 241.801 3.80115 325.211L113.053 3.94519ZM112.955 2.57349C83.8597 89.9588 54.0924 176.439 4.02193 325.791L112.955 2.57349ZM114.381 3.02307C90.2841 76.0019 66.6708 151.008 3.51982 330.05L114.381 3.02307ZM114.94 4.01471C88.1935 78.3938 61.9559 156.981 3.70485 331.149L114.94 4.01471ZM116.74 4.16052C73.2302 129.877 30.2739 258.231 4.44591 339.799L116.74 4.16052ZM116.804 2.90613C72.9155 130.462 29.9969 260.374 4.22305 338.511L116.804 2.90613ZM118.844 1.97168C79.2593 121.609 39.1324 239.499 4.51686 342.579L118.844 1.97168ZM118.578 3.9408C85.7753 100.751 52.4018 198.863 4.0715 344.904L118.578 3.9408ZM120.643 2.56934C88.8864 105.31 55.0813 205.881 4.47751 350.233L120.643 2.56934ZM120.665 2.30298C81.6739 115.584 42.8019 230.177 4.28756 349.132L120.665 2.30298ZM122.551 3.99658C80.0615 122.72 38.5822 245.656 4.48754 356.664L122.551 3.99658ZM122.811 3.38306C96.9573 75.6595 73.034 149.506 3.59398 356.982L122.811 3.38306ZM124.8 4.50854C90.2056 113.038 53.7137 218.863 4.68827 362.111L124.8 4.50854ZM124.81 3.07422C93.4926 98.8121 61.7849 192.771 3.80247 362.723L124.81 3.07422ZM126.525 3.99524C98.425 91.8114 68.7009 178.839 3.20992 369.985L126.525 3.99524ZM127.213 3.41693C84.8427 126.479 43.2601 250.536 4.09402 367.946L127.213 3.41693ZM128.333 4.90912C88.4019 114.933 49.4357 230.83 4.46086 375.848L128.333 4.90912ZM129.119 3.646C89.2598 123.26 49.9931 238.254 4.05239 373.845L129.119 3.646ZM131.202 4.13354C90.4806 123.502 49.9527 241.558 3.21143 379.834L131.202 4.13354ZM130.699 2.66095C92.4583 120.068 52.1341 239.036 3.77334 380.361L130.699 2.66095ZM133.365 3.20685C89.4471 137.208 44.4216 267.203 4.00169 387.96L133.365 3.20685ZM132.875 3.38159C103.532 89.9367 74.172 178.719 3.83974 386.431L132.875 3.38159ZM134.57 1.21454C84.7342 150.059 34.4811 294.964 4.09969 392.418L134.57 1.21454ZM135.276 3.03619C84.3988 151.848 33.3693 303.408 4.03385 392.889L135.276 3.03619ZM137.033 4.02057C108.046 89.5555 78.2685 178.991 4.38462 398.476L137.033 4.02057ZM137.363 3.23773C107.705 88.1409 79.7047 170.523 3.9911 399.493L137.363 3.23773ZM139.493 4.06165C110.882 88.0117 81.8384 174.337 3.16943 403.194L139.493 4.06165ZM139.266 3.03601C98.2113 126.412 57.5342 247.065 4.11085 405.021L139.266 3.03601ZM141.938 2.24432C91.3206 146.17 43.0365 290.553 4.4917 412.461L141.938 2.24432ZM141.721 3.80109C101.771 122.222 61.7789 240.718 3.80115 411.978L141.721 3.80109ZM143.85 3.72455C90.2967 163.373 35.5731 319.421 4.35907 415.811L143.85 3.72455ZM143.656 2.95099C114.142 91.1913 85.6128 175.405 3.84258 418.038L143.656 2.95099ZM144.852 4.12561C91.5998 158.046 39.3655 315.556 4.24613 424.824L144.852 4.12561ZM145.349 2.67401C88.0165 165.947 32.6623 332.041 3.91428 424.213L145.349 2.67401ZM148.08 1.91516C112.748 112.593 76.3893 219.795 3.26762 431.136L148.08 1.91516ZM147.46 2.32385C93.1557 162.25 38.7577 326.486 4.07226 428.537L147.46 2.32385ZM149.667 1.91949C101.56 135.682 56.9754 274.78 4.56208 436.495L149.667 1.91949ZM149.49 3.01556C105.97 128.075 62.4218 256.03 3.93207 435.767L149.49 3.01556ZM151.451 3.69458C95.6216 171.541 39.2326 339.708 3.54593 440.386L151.451 3.69458ZM151.964 4.01831C109.768 127.652 68.875 250.962 3.68839 441.772L151.964 4.01831ZM152.969 4.50616C120.543 98.0817 89.7962 190.273 4.22702 449.357L152.969 4.50616ZM153.286 3.55109C105.961 146.139 58.5362 286.644 3.59985 446.669L153.286 3.55109ZM155.07 5.01422C112.107 128.418 70.6497 254.399 3.26762 453.408L155.07 5.01422ZM155.519 2.88367C109.169 142.958 62.3285 281.785 3.7092 453.917L155.519 2.88367ZM157.276 2.36377C122.579 108.667 88.731 208.475 3.44244 460.636L157.276 2.36377ZM157.451 2.75403C125.91 100.851 92.5086 199.774 4.09156 460.755L157.451 2.75403ZM159.113 1.90912C122.251 121.536 83.3612 236.782 3.62822 464.754L159.113 1.90912ZM159.577 2.92017C126.221 101.796 91.94 201.968 4.26486 464.994L159.577 2.92017ZM162.332 5.04211C104.093 175.519 46.3165 346.537 3.49787 470.693L162.332 5.04211ZM161.593 2.25146C131.128 95.326 98.7461 190.79 3.92696 471.778L161.593 2.25146ZM164.659 3.59955C105.362 179.366 46.3733 356.292 3.43487 476.432L164.659 3.59955ZM163.898 2.46338C109.086 160.401 55.5177 319.279 4.15267 477.738L163.898 2.46338ZM166.3 1.19263C108.717 178.281 51.1206 351.388 4.1381 483.797L166.3 1.19263ZM166.374 2.51996C103.978 186.936 43.8008 367.274 3.98996 484.293L166.374 2.51996ZM168.149 4.14954C128.778 121.09 88.2728 240.544 4.12769 492.254L168.149 4.14954ZM168.096 2.41089C133.835 105.454 98.0435 211.983 3.58755 489.564L168.096 2.41089ZM169.792 1.18475C111.026 181.601 52.2178 360.398 3.65793 497.014L169.792 1.18475ZM170.398 4.03339C115.481 174.655 59.6925 341.896 4.27413 496.141L170.398 4.03339ZM172.379 3.69897C132.205 121.25 93.7923 239.263 3.46003 503.272L172.379 3.69897ZM171.967 3.31403C108.756 186.499 46.5069 372.21 4.23364 502.358L171.967 3.31403ZM172.694 5.36487C124.084 152.533 74.8564 299.624 4.11426 509.113L172.694 5.36487ZM172.951 5.7229C118.804 166.728 65.2054 325.124 4.03896 508.387L172.951 5.7229ZM173.684 11.2701C117.499 182.57 60.2298 351.813 3.49049 513.105L173.684 11.2701ZM173.289 12.9197C115.425 177.811 58.3704 347.361 3.81458 513.899L173.289 12.9197ZM173.51 18.3358C129.182 143.409 87.6251 268.899 3.2086 521.325L173.51 18.3358ZM173.179 18.1284C115.904 188.496 59.549 355.975 3.8615 521.13L173.179 18.1284ZM173.544 22.2375C111.183 205.088 52.0505 385.493 3.65717 527.761L173.544 22.2375ZM173.058 23.8339C125.06 172.036 74.6272 319.103 3.77882 527.24L173.058 23.8339ZM173.75 28.9166C120.292 180.676 68.7305 335.268 3.31719 532.745L173.75 28.9166ZM173.185 29.5289C120.771 184.747 67.8308 341.819 3.57752 533.067L173.185 29.5289ZM173.149 36.194C135.16 151.982 96.036 268.95 3.46287 537.193L173.149 36.194ZM173.522 35.9789C117.382 198.602 61.7131 363.508 4.28813 538.697L173.522 35.9789ZM173.059 41.9167C128.605 171.72 84.9642 298.912 4.35283 545.7L173.059 41.9167ZM173.123 43.2724C127.837 179.292 81.9498 314.99 4.15134 545.483L173.123 43.2724ZM172.517 47.6945C106.427 239.891 40.0051 435.595 3.6776 552.462L172.517 47.6945ZM173.408 49.1509C107.02 245.314 42.3306 436.819 4.22059 551.316L173.408 49.1509ZM172.785 54.1345C127.613 192.71 82.5172 326.429 3.44376 557.784L172.785 54.1345ZM173.309 53.8965C120.988 210.607 69.6016 360.784 3.8458 558.169L173.309 53.8965ZM172.842 62.3774C116.201 227.447 59.4563 395.187 4.42643 564.02L172.842 62.3774ZM173.275 60.278C123.942 211.821 74.5317 357.144 4.10442 562.854L173.275 60.278ZM173.555 65.1487C111.455 250.881 49.1896 437.416 3.75252 569.943L173.555 65.1487ZM173.556 65.9799C119.291 222.425 67.4987 375.519 4.00301 569.034L173.556 65.9799ZM173.651 74.1269C131.132 200.508 88.8924 329.451 4.16648 574.991L173.651 74.1269ZM172.913 73.3852C124.573 214.541 76.7942 356.971 3.76747 576.267L172.913 73.3852ZM173.229 81.0526C111.09 272.569 45.9102 460.976 3.33365 582.87L173.229 81.0526ZM173.223 80.0542C122.483 237.218 69.9339 393.518 4.12788 581.078L173.223 80.0542ZM173.302 84.9959C128.663 217.093 82.965 350.801 4.47846 586.773L173.302 84.9959ZM173.549 86.1034C130.691 209.016 88.53 334.046 3.80436 588.715L173.549 86.1034ZM173.245 91.0912C108.037 284.582 42.6184 478.823 3.90028 595.597L173.245 91.0912ZM172.945 91.9431C106.183 285.421 40.8966 478.099 4.04161 594.341L172.945 91.9431ZM173.531 96.202C124.178 252.8 73.2254 403.958 3.49541 598.773L173.531 96.202ZM173.117 97.4826C116.392 262.764 60.0116 427.45 3.87645 599.55L173.117 97.4826ZM172.564 104.671C118.646 261.014 64.2153 420.254 3.80966 604.622L172.564 104.671ZM172.924 104.273C109.909 287.436 46.8888 476.829 3.68479 605.889L172.924 104.273ZM173.227 110.111C123.571 258.708 74.5371 409.5 3.60931 611.623L173.227 110.111ZM173.534 110.34C131.572 233.102 90.1355 357.007 3.73285 611.431L173.534 110.34ZM174.024 114.214C132.315 238.198 90.0958 361.759 4.31632 618.036L174.024 114.214ZM173.499 114.721C107.123 315.431 39.3794 515.274 3.60439 619.137L173.499 114.721ZM173.556 123.405C129.073 247.913 86.2321 373.53 3.54782 623.288L173.556 123.405ZM173.271 121.484C137.624 229.911 100.294 338.726 3.98145 623.677L173.271 121.484ZM173.55 126.67C119.138 287.249 66.74 445.862 3.91088 630.145L173.55 126.67ZM172.914 127.381C111.535 307.816 51.1684 486.79 4.03177 629.742L172.914 127.381ZM173.343 132.568C120.942 284.853 70.7907 430.562 4.63019 635.711L173.343 132.568ZM173.347 133.615C124.78 283.621 74.9219 431.425 3.96764 636.202L173.347 133.615ZM173.341 139.607C111.89 323.943 50.5587 505.694 4.41735 643.276L173.341 139.607ZM173.35 139.576C127.432 283.621 79.2537 424.426 4.15815 642.027L173.35 139.576ZM173.94 146.997C120.637 305.713 68.3067 466.675 3.50506 647L173.94 146.997ZM173.23 146.25C124.659 285.927 77.9544 426.69 4.19599 648.435L173.23 146.25ZM173.231 151.095C127.111 282.692 82.0484 418.512 4.58384 654.434L173.231 151.095ZM172.901 151.508C114.99 325.186 56.2043 498.189 3.92828 653.977L172.901 151.508ZM172.838 158.065C123.874 300.633 75.6556 446.294 3.94872 662.644L172.838 158.065ZM173.395 157.986C116.478 325.008 61.2223 488.473 3.69369 660.458L173.395 157.986ZM173.232 164.242C111.461 347.909 49.7881 528.995 3.44301 666.299L173.232 164.242ZM172.87 163.727C113.279 342.217 53.4441 520.469 4.23818 667.716L172.87 163.727ZM173.006 170.293C108.813 358.603 43.6803 555.02 4.4181 672.206L173.006 170.293ZM173.27 171.275C124.444 311.219 76.5183 453.993 4.14813 672.237L173.27 171.275ZM173.357 177.865C107.91 367.894 43.4399 561.181 3.71828 681.243L173.357 177.865ZM173.415 177.463C107.091 372.263 40.9105 566.905 3.74855 678.719L173.415 177.463ZM173.557 184.32C124.09 335.607 74.7341 483.417 4.61448 687.407L173.557 184.32ZM172.958 183.152C120.541 333.255 68.7653 487.731 3.55936 686.318L172.958 183.152ZM173.889 189.727C132.714 304.981 93.5507 426.382 3.35863 692.273L173.889 189.727ZM173.554 189.493C137.003 302.573 98.7025 415.707 4.08323 690.739L173.554 189.493ZM173.401 194.935C125.967 332.941 81.3924 469.717 3.56882 699.198L173.401 194.935ZM173.373 194.64C130.462 320.693 88.657 444.767 3.82726 698.33L173.373 194.64ZM173.799 199.598C118.333 355.469 67.0242 511.677 3.59852 705.253L173.799 199.598ZM173.002 201.721C132.39 323.064 90.0979 448.956 4.06772 703.082L173.002 201.721ZM173.019 205.892C135.107 313.48 98.4796 422.984 4.6737 708.106L173.019 205.892ZM173.318 206.476C109.468 394.913 47.16 578.417 3.68442 709.805L173.318 206.476ZM173.313 213.56C118.408 378.933 61.2276 547.198 3.59493 714.294L173.313 213.56ZM173.554 212.294C137.561 320.596 101.104 429.58 3.75593 715.221L173.554 212.294ZM173.578 217.595C122.537 369.004 71.885 517.589 4.22153 722.713L173.578 217.595ZM172.977 219.399C118.978 380.449 64.1375 544.025 3.87474 722.55L172.977 219.399ZM173.614 226.367C107.676 416.481 43.1223 608.536 3.7635 729.27L173.614 226.367ZM173.228 226.199C134.037 344.026 95.4796 456.673 3.57052 728.597L173.228 226.199ZM172.994 232.051C133.133 358.423 92.026 481.329 4.12126 733.843L172.994 232.051ZM173.123 232.261C128.867 365.148 85.0217 498.021 3.76993 734.835L173.123 232.261ZM173.76 237.695C133.751 352.796 93.5385 473.129 4.15096 738.654L173.76 237.695ZM173.523 238.422C131.661 355.981 91.5768 472.558 3.99091 740.856L173.523 238.422ZM173.079 245.458C117.994 411.484 59.8586 585.319 3.68536 746.574L173.079 245.458ZM173.5 242.966C127.362 375.567 82.528 508.019 3.65887 746.288L173.5 242.966ZM173.612 248.656C109.485 442.961 44.6592 636.889 3.37509 753.661L173.612 248.656ZM173.415 250.625C115.299 421.164 56.5346 593.072 3.73077 751.925L173.415 250.625ZM173.321 256.864C120.152 412.591 67.3253 568.743 3.7039 758.119L173.321 256.864ZM173.332 255.849C114.095 427.819 56.3269 600.063 4.04653 757.585L173.332 255.849ZM173.245 260.345C137.51 367.538 102.516 472.981 3.86585 765.894L173.245 260.345ZM173.377 261.646C119.452 420.329 67.1956 577.11 4.25369 764.013L173.377 261.646ZM173.21 267.213C111.344 447.303 50.9717 627.002 3.94153 770.696L173.21 267.213ZM173.085 267.833C110.911 456.723 48.7295 641.031 3.77182 770.023L173.085 267.833ZM173.737 273.5C123.299 424.597 72.8439 572.014 3.4449 775.924L173.737 273.5ZM172.954 274.74C111.721 452.392 50.3824 633.749 3.5849 777.611L172.954 274.74ZM173.114 282.232C135.918 386.836 101.104 491.759 3.68101 784.049L173.114 282.232ZM173.541 280.163C114.274 457.732 54.901 634.994 4.24367 783.831L173.541 280.163ZM172.721 286.032C113.136 468.89 52.6772 650.422 3.64185 790.872L172.721 286.032ZM173.376 285.854C121.389 434.708 70.7431 585.262 3.64639 788.714L173.376 285.854ZM173.549 292.971C125.751 433.553 78.764 570.989 3.86604 795.014L173.549 292.971ZM173.298 291.991C106.679 493.507 38.9922 694.191 4.20072 795.442L173.298 291.991ZM173.32 299.949C111.835 482.811 50.6853 668.521 4.19277 800.091L173.32 299.949ZM173.369 298.57C136.218 401.778 100.122 509.018 4.19315 800.417L173.369 298.57ZM172.903 306.391C125.17 443.048 80.1776 580.471 3.99469 809.16L172.903 306.391ZM173.539 305.014C128.597 440.708 83.0236 576.337 3.76861 806.856L173.539 305.014ZM173.912 310.099C129.677 432.061 88.5483 557.281 3.35919 814.211L173.912 310.099ZM173.217 311.533C137.257 417.854 100.536 527.225 4.26864 814.251L173.217 311.533ZM172.956 316.09C110.169 506.481 45.5701 696.617 3.25589 819.773L172.956 316.09ZM173.296 316.943C125.431 458.677 77.2362 600.69 3.54195 819.226L173.296 316.943ZM173.295 322.211C107.98 515.926 42.9661 709.672 3.6199 827.612L173.295 322.211ZM173.628 323.63C111.327 499.663 51.2402 677.841 3.90785 826.176L173.628 323.63ZM172.721 327.748C132.893 444.991 93.4397 561.93 3.45682 831.449L172.721 327.748ZM173.092 329.108C107.058 519.923 41.9061 710.845 4.05353 832.651L173.092 329.108ZM173.798 334.802C111.993 515.278 52.1546 693.678 3.4519 837.586L173.798 334.802ZM173.571 334.531C131.773 461.468 88.2253 588.638 3.67041 838.384L173.571 334.531ZM173.512 342.578C115.071 515.268 57.9863 686.988 3.41765 843.705L173.512 342.578ZM173.027 341.936C109.194 521.632 46.67 707.836 4.29305 844.63L173.027 341.936ZM172.975 348.289C122.465 491.648 72.7519 638.329 4.12694 848.296L172.975 348.289ZM173.011 348.216C132.93 475.626 90.9364 600.985 3.75366 850.101L173.011 348.216ZM173.472 351.735C105.766 550.685 41.0932 748.255 4.65781 854.966L173.472 351.735ZM172.91 354.092C140.754 452.484 106.351 555.783 4.02874 856.107L172.91 354.092ZM173.772 359.958C114.953 525.968 58.4449 694.167 4.00396 860.259L173.772 359.958ZM173.255 358.739C124.991 507.245 74.9227 656.223 4.28661 862.494L173.255 358.739ZM173.887 365.887C105.101 559.924 37.717 760.192 3.4642 869.353L173.887 365.887ZM173.227 365.648C138.284 470.027 103.205 575.206 3.58717 867.326L173.227 365.648ZM173.904 371.882C106.712 568.147 41.7879 763.784 4.65062 876.22L173.904 371.882ZM173.181 371.467C137.389 485.766 99.3171 598.382 3.67741 873.489L173.181 371.467ZM173.525 377.344C120.524 536.173 66.4393 694.943 3.47498 881.273L173.525 377.344ZM173.123 378.736C116.484 544.571 60.8417 709.995 3.86244 880.47L173.123 378.736ZM172.487 383.625C110.916 566.9 47.829 754.176 3.43279 886.828L172.487 383.625ZM173.498 384.455C136.812 490.314 101.212 596.485 3.79566 887.484L173.498 384.455ZM173.769 389.725C129.474 528.744 84.3689 661.154 3.30925 894.519L173.769 389.725ZM173.615 389.728C119.075 543.364 66.1399 700.481 4.31234 892.214L173.615 389.728ZM173.656 394.521C128.67 527.325 83.9965 661.526 4.00396 898.249L173.656 394.521ZM173.369 396.11C114.323 574.015 55.717 747.746 4.20772 898.553L173.369 396.11ZM172.622 403.752C129.655 531.78 84.9914 666.786 3.20557 904.424L172.622 403.752ZM173.07 401.737C107.889 594.288 44.3223 784.995 3.85847 905.752L173.07 401.737ZM173.667 409.726C116.439 578.189 58.3148 750.439 3.78147 909.081L173.667 409.726ZM173.384 407.578C138.572 508.326 103.955 613.572 3.58963 910.5L173.384 407.578ZM173.44 413.123C121.335 560.167 72.7351 709.198 4.69111 918.506L173.44 413.123ZM173.496 414.932C137.506 514.988 102.955 617.22 4.05807 916.148L173.496 414.932ZM173.565 420.553C121.933 577.396 69.2167 733.201 4.44005 924.496L173.565 420.553ZM173.446 420.967C108.673 608.761 43.9709 801.608 3.94418 922.408L173.446 420.967ZM173.331 425.888C126.966 567.596 79.3553 709.294 3.31852 927.66L173.331 425.888ZM173.263 427.105C124.219 570.184 75.1372 715.244 4.02969 929.559L173.263 427.105ZM172.514 432.533C133.841 553.689 93.714 668.943 4.12561 935.061L172.514 432.533ZM173.498 432.168C130.102 559.975 87.867 684.392 3.59549 936.351L173.498 432.168ZM172.833 439.591C113.251 616.685 52.6574 800.654 3.52701 941.213L172.833 439.591ZM172.989 439.487C111.628 626.377 49.6814 812.157 4.01266 940.716L172.989 439.487ZM173.375 443.834C114.935 620.628 55.2779 795.754 3.44906 946.691L173.375 443.834ZM173.244 445.003C129.149 574.191 84.8359 707.498 4.16648 947.381L173.244 445.003ZM172.674 451.504C120.516 611.141 65.9722 769.427 3.27765 953.417L172.674 451.504ZM173.029 450.132C135.414 568.005 96.2089 684.881 3.54687 953.411L173.029 450.132ZM172.671 458.561C116.889 619.63 62.6468 778.938 4.07585 959.476L172.671 458.561ZM172.882 456.401C115.733 624.251 58.7744 793.067 4.10518 959.644L172.882 456.401ZM173.434 464.583C139.981 565.754 105.783 669.234 4.35926 966.653L173.434 464.583ZM173.38 462.221C132.966 579.593 94.4871 694.723 3.95345 966.162L173.38 462.221ZM172.857 469.684C122.441 620.495 69.0109 776.149 3.92866 969.983L172.857 469.684ZM173.233 469.679C115.134 640.759 58.165 809.581 3.75139 972.414L173.233 469.679ZM173.362 475.478C140.048 578.022 104.375 679.529 4.53427 979.544L173.362 475.478ZM173.306 475.26C109.877 667.132 45.6178 857.631 3.86377 978.954L173.306 475.26ZM173.096 482.223C135.214 602.489 94.5086 721.505 4.57324 985.615L173.096 482.223ZM173.568 482.28C106.149 678.688 39.0494 875.308 4.11161 984.253L173.568 482.28ZM173.093 487.425C122.87 628.188 75.928 772.46 4.4584 991.355L173.093 487.425ZM173.414 486.848C124.295 636.018 75.1582 780.458 3.71733 990.594L173.414 486.848ZM173.776 495.57C124.362 640.748 76.4388 782.453 4.06639 997.179L173.776 495.57ZM173.288 492.931C137.387 600.083 102.583 703.831 4.31197 997.137L173.288 492.931ZM173.078 501.124C115.285 670.108 58.5058 839.72 4.4864 1002.4L173.078 501.124ZM173.348 500.71C113.723 669.416 56.1857 840.992 4.04672 1002.96L173.348 500.71ZM172.923 505.895C132.908 633.163 90.4612 761.029 3.6636 1009.58L172.923 505.895ZM173.196 506.566C105.618 699.092 40.3043 893.666 3.64033 1009.16L173.196 506.566ZM173.973 511.85C130.897 636.631 88.1436 762.259 4.50456 1013.26L173.973 511.85ZM173.124 512.159C127.719 644.895 81.6568 781.284 3.82101 1014.21L173.124 512.159ZM173.155 519.181C126.561 662.824 78.4577 804.961 4.22059 1019.67L173.155 519.181ZM173.547 517.305C138.962 624.37 103.398 730.058 4.26088 1020L173.547 517.305ZM172.625 524.521C125.078 666.249 77.6521 809.579 4.11804 1026.47L172.625 524.521ZM173.309 523.381C116.669 690.602 61.0137 856.573 4.00188 1026.46L173.309 523.381ZM173.391 529.783C113.23 710.639 51.3607 891.848 4.14983 1031.04L173.391 529.783ZM173.118 530.823C108.527 730.163 41.2993 929.462 3.99772 1033.49L173.118 530.823ZM173.412 535.383C105.522 728.929 40.8633 923.219 3.93755 1037.21L173.412 535.383ZM173.366 536.648C127.946 675.884 81.4884 811.141 4.25975 1039.45L173.366 536.648ZM173.128 541.774C113.703 718.395 55.0352 888.066 4.0015 1044.52L173.128 541.774ZM173.217 543.274C115.483 721.662 56.7059 895.73 4.19864 1044.35L173.217 543.274ZM173.757 547.993C113.955 735.161 51.63 917.133 3.34538 1050L173.757 547.993ZM173.213 548.79C138.038 652.996 104 754.131 4.25161 1050.44L173.213 548.79ZM172.532 553.585C109.81 733.863 47.8651 920.114 3.9631 1056.89L172.532 553.585ZM173.339 555.028C110.728 738.52 48.6171 920.451 4.18596 1056.58L173.339 555.028ZM173.332 560.369C107.659 759.834 42.1383 954.664 4.01569 1065.19L173.332 560.369ZM172.897 561.024C109.709 745.676 47.231 933.125 3.58131 1062.94L172.897 561.024ZM173.585 568.765C137.581 669.306 102.067 775.971 3.75404 1070.68L173.585 568.765ZM173.288 567.781C124.825 701.018 79.1155 838.722 3.72831 1069.75L173.288 567.781ZM173.14 571.688C141.215 672.298 106.438 771.525 3.54971 1077.45L173.14 571.688ZM172.879 571.945C115.747 746.766 57.1989 920.621 4.30515 1075.37L172.879 571.945ZM173.887 577.575C125.41 716.482 77.992 855.91 4.48129 1080.93L173.887 577.575ZM172.908 579.903C125.796 716.28 78.1494 858.512 4.01966 1081.89L172.908 579.903ZM173.848 583.495C121.216 732.31 71.3011 882.964 5.35158 1083.27L173.848 583.495ZM173.389 584.598C114.791 757.4 55.8846 931.499 5.27968 1083.42L173.389 584.598ZM173.577 592.347C131.549 716.87 90.2718 839.307 8.34006 1084.47L173.577 592.347ZM173.526 591.191C135.634 699.459 99.6711 807.187 7.20604 1082.9L173.526 591.191ZM172.566 598.836C115.383 765.181 59.427 933.743 9.34581 1083.46L172.566 598.836ZM173.27 598.14C133.098 717.102 93.6532 834.56 9.39935 1083.7L173.27 598.14ZM172.842 604.629C112.935 786.005 52.5819 968.128 11.4167 1081.56L172.842 604.629ZM173.584 603.779C134.843 720.518 95.7914 838.122 11.5749 1082.63L173.584 603.779ZM172.96 608.371C141.522 704.08 108.816 800.405 13.7771 1084.6L172.96 608.371ZM172.951 609.283C129.41 739.683 87.004 864.619 13.6787 1082.07L172.951 609.283ZM173.992 617.009C124.346 765.346 73.0974 914.896 15.5443 1083.79L173.992 617.009ZM173.624 615.812C134.341 733.317 96.1113 849.718 16.1363 1082.93L173.624 615.812ZM172.585 621.795C117.015 792.774 59.4408 961.899 17.0929 1084.34L172.585 621.795ZM173.396 621.624C126.571 762.054 78.8897 905.696 18.2121 1082.29L173.396 621.624ZM173.35 627.427C126.305 770.216 78.7963 911.402 19.9546 1084.34L173.35 627.427ZM172.942 628.42C120.483 790.413 66.041 953.143 20.0009 1084.06L172.942 628.42ZM173.211 634.266C116.737 795.635 61.5778 961.054 21.3362 1084.87L173.211 634.266ZM173.267 633.287C136.772 737.13 101.957 842.909 22.227 1082.32L173.267 633.287ZM173.227 640.473C141.881 728.585 111.051 822.664 24.5981 1082.12L173.227 640.473ZM172.98 639.827C125.69 785.162 77.3041 929.111 24.0114 1083.58L172.98 639.827ZM173.945 647.822C122.312 798.592 70.4409 952.341 25.6992 1082.14L173.945 647.822ZM173.226 645.5C119.927 806.86 65.6724 966.025 26.1919 1082.94L173.226 645.5ZM173.276 651.706C129.253 778.319 86.1612 907.067 28.2368 1081.98L173.276 651.706ZM173.619 651.846C134.421 764.211 95.2269 881.676 28.2507 1082.13L173.619 651.846ZM172.527 656.421C140.736 755.229 109.311 847.222 30.4339 1084.18L172.527 656.421ZM173.147 659.036C118.068 824.077 61.8064 991.256 30.1596 1082.21L173.147 659.036ZM173.046 665.43C117.962 825.089 64.3312 984.532 32.4074 1081.93L173.046 665.43ZM173.415 664.442C129.369 798.859 85.5022 929.925 31.9278 1083.89L173.415 664.442ZM172.514 672.113C143.833 760.916 113.77 846.815 33.8407 1081.65L172.514 672.113ZM173.518 670.547C129.232 799.746 84.2595 932.328 34.5436 1083.01L173.518 670.547ZM173.198 677.417C142.594 767.923 111.657 861.659 36.416 1084.3L173.198 677.417ZM173.18 676.237C126.111 813.765 80.6986 950.172 35.9784 1082.68L173.18 676.237ZM172.948 681.18C144.922 762.571 118.402 843.49 37.7042 1081.37L172.948 681.18ZM173.537 681.74C125.039 825.295 77.7757 965.742 38.4163 1082.47L173.537 681.74ZM172.921 688.308C144.819 774.658 115.863 858.596 40.9553 1082.21L172.921 688.308ZM173.592 689.28C144.91 776.259 114.769 866.786 40.1573 1083.88L173.592 689.28ZM173.722 694.233C121.398 848.235 69.9876 1000.97 42.7742 1084.13L173.722 694.233ZM173.231 694.519C131.169 820.713 87.8875 950.14 42.1465 1083.06L173.231 694.519ZM172.703 702.5C144.423 786.575 115.197 872.497 44.0872 1082.07L172.703 702.5ZM173.539 700.566C143.578 782.728 115.826 867.799 44.4285 1082.08L173.539 700.566ZM173.045 708.069C127.75 845.492 80.6608 987.142 45.9422 1082.1L173.045 708.069ZM172.979 707.931C128.259 844.506 83.0632 979.214 46.6314 1082.7L172.979 707.931ZM173.962 711.844C137.022 823.513 99.7163 935.36 48.4736 1082.24L173.962 711.844ZM173.106 712.489C132.278 836.295 91.4652 956.978 48.3617 1083.55L173.106 712.489ZM173.489 719.236C143.611 810.238 113.929 896.628 50.6215 1084.42L173.489 719.236ZM173.046 720.137C147.017 795.391 119.81 876.794 50.6336 1082.41L173.046 720.137ZM172.545 723.397C137.419 830.895 102.11 935.123 53.38 1081.15L172.545 723.397ZM173.393 725.856C126.849 863.568 80.8399 999.354 52.9783 1083.81L173.393 725.856ZM173.442 730.238C140.36 835.318 107.227 934.508 54.0691 1082.25L173.442 730.238ZM173.244 732.076C131.055 856.421 89.409 980.451 54.9669 1082.93L173.244 732.076ZM173.932 739.318C142.963 824.108 113.623 912.769 57.4443 1083.05L173.932 739.318ZM173.254 737.716C127.862 874.138 82.6139 1009.03 57.0174 1082.67L173.254 737.716ZM173.626 743.998C145.644 824.34 118.572 903.209 58.2322 1081.3L173.626 743.998ZM173.205 743.011C141.415 833.065 110.842 923.666 59.2336 1083.91L173.205 743.011ZM174.023 751.6C137.644 858.595 103.011 964.534 60.8226 1084.58L174.023 751.6ZM173.113 748.934C148.025 823.702 124.077 896.397 61.0828 1083.06L173.113 748.934ZM173.182 755.477C134.86 874.031 95.7853 988.85 62.3545 1084.17L173.182 755.477ZM173.557 756.186C129.964 883.299 87.1183 1011.2 63.25 1082.96L173.557 756.186ZM172.969 762.423C143.808 845.81 115.684 930.474 64.7916 1081.6L172.969 762.423ZM172.957 762.232C143.564 850.337 113.789 937.796 65.2885 1082.82L172.957 762.232ZM173.623 766.465C147.526 841.545 123.481 910.583 67.84 1082.56L173.623 766.465ZM173.54 768.451C133.122 887.887 93.0651 1006.51 66.9055 1083.22L173.54 768.451ZM173.975 775.051C145.997 855.143 118.082 935.561 69.2727 1083.68L173.975 775.051ZM173.627 773.987C138.218 881.717 102.026 989.232 68.8708 1083.65L173.627 773.987ZM173.375 781.866C151.053 848.917 127.023 921.702 71.1762 1082.24L173.375 781.866ZM173.361 781.014C151.313 842.51 130.692 904.472 71.1912 1083.96L173.361 781.014ZM173.924 785.067C143.927 869.678 114.549 958.778 73.1825 1081.77L173.924 785.067ZM173.608 786.207C143.895 872.504 115.631 956.747 73.1039 1083.82L173.608 786.207ZM173.024 792.181C148.823 867.965 123.221 942.424 75.4034 1081.08L173.024 792.181ZM173.368 792.946C144.972 875.572 115.553 962.774 75.4104 1083.58L173.368 792.946ZM173.022 798.371C148.677 869.738 123.624 941.199 76.9588 1083.97L173.022 798.371ZM173.456 798.422C135.655 908.478 97.7759 1022.29 77.4682 1083.5L173.456 798.422ZM173.876 802.91C138.777 906.554 104.307 1008.39 79.7676 1084.48L173.876 802.91ZM173.041 803.97C148.475 878.936 123.734 951.546 79.5507 1082.68L173.041 803.97ZM173.955 810.804C148.604 882.689 124.331 955.026 81.9597 1083.35L173.955 810.804ZM173.048 811.467C145.106 891.109 116.762 974.66 81.6596 1083.57L173.048 811.467ZM172.716 818.232C138.397 923.838 101.957 1028.47 82.9154 1083.36L172.716 818.232ZM173.108 816.906C143.696 902.885 115.029 988.25 83.2527 1083.5L173.108 816.906ZM173.662 821.786C154.207 879.528 136.278 932.787 85.0582 1084.96L173.662 821.786ZM172.988 822.453C141.638 916.978 109.501 1013.03 85.9694 1082.45L172.988 822.453ZM172.974 827.622C142.19 919.382 112.839 1007.59 87.7817 1081.15L172.974 827.622ZM173.043 828.81C140.614 925.206 107.775 1023.63 87.8143 1082.58L173.043 828.81ZM173.462 833.349C149.31 905.036 125.544 972.499 90.0258 1084.22L173.462 833.349ZM173.019 835.401C144.4 918.673 115.292 1005.51 89.5183 1082.26L173.019 835.401ZM173.802 840.93C158.121 890.791 140.203 940.569 92.4066 1082.12L173.802 840.93ZM172.896 841.997C154.507 895.812 135.122 954.116 91.7413 1082.9L172.896 841.997ZM173.997 846.076C153.095 902.428 134.751 959.543 94.2302 1082.48L173.997 846.076ZM173.574 846.524C150.297 916.846 126.845 986.531 93.6226 1083.61L173.574 846.524ZM172.542 851.576C145.871 932.245 119.66 1016.21 96.6088 1083.53L172.542 851.576ZM173.583 853.592C146.199 934.696 119.29 1016.08 95.6859 1082.27L173.583 853.592ZM172.518 859.133C143.118 945.361 114.109 1034.3 98.592 1084.79L172.518 859.133ZM173.023 858.486C145.674 942.926 117.699 1024.31 98.0161 1082.76L173.023 858.486ZM172.61 867.55C155.958 918.524 136.982 972.744 99.6368 1082.37L172.61 867.55ZM173.32 865.937C154.372 922.619 135.267 978.883 100.021 1083.17L173.32 865.937ZM172.698 872.977C146.237 951.602 118.125 1033.94 102.304 1084.51L172.698 872.977ZM173.584 872.653C155.99 921.8 138.908 971.813 102.127 1082.98L173.584 872.653ZM172.697 876.55C153.792 935.116 134.811 993.181 104.78 1083.24L172.697 876.55ZM173.397 878.092C149.224 947.216 125.2 1019.16 104.42 1083.66L173.397 878.092ZM173.714 885.631C157.915 924.668 143.753 969.602 106.376 1083.15L173.714 885.631ZM173.418 883.113C152.277 945.895 131.161 1008.43 106.021 1083.7L173.418 883.113ZM173.053 890.245C151.092 956.448 128.51 1020.67 108.939 1083.35L173.053 890.245ZM173.399 889.504C153.334 947.483 133.205 1007.63 108.053 1082.38L173.399 889.504ZM172.748 896.214C159.348 939.629 143.903 985.506 109.709 1084.42L172.748 896.214ZM172.868 896.286C148.021 969.069 123.29 1042.93 110.111 1083.97L172.868 896.286ZM173.172 903.064C149.1 975.672 125.292 1046.79 111.958 1083.45L173.172 903.064ZM173.221 902.064C153.13 961.078 133.736 1019.32 112.471 1082.23L173.221 902.064ZM172.66 907.344C154.161 967.573 133.952 1026.61 113.746 1084.5L172.66 907.344ZM173.021 908.515C153.502 963.407 134.883 1021.17 114.119 1084L173.021 908.515ZM172.826 915.329C160.847 949.864 149.717 984.587 115.877 1082.34L172.826 915.329ZM173.554 915.049C157.917 961.357 143.182 1006.58 116.786 1082.64L173.554 915.049ZM172.572 921.969C152.847 984.14 131.055 1046.69 117.908 1081.79L172.572 921.969ZM173.027 919.902C158.498 964.184 142.947 1010.78 118.348 1083.17L173.027 919.902ZM173.492 926.734C158.504 971.693 142.683 1015.38 119.761 1084.28L173.492 926.734ZM173.31 926.417C160.96 964.277 147.827 1002.46 120.643 1083.61L173.31 926.417ZM172.508 933.93C161.944 963.861 152.023 994.113 122.54 1081.15L172.508 933.93ZM173.237 931.944C153.684 989.275 134.578 1046.49 122.817 1083.59L173.237 931.944ZM174.002 938.501C161.27 974.629 149.832 1007.86 123.956 1082.04L174.002 938.501ZM173.033 939.705C160.039 978.679 146.464 1016.63 124.598 1082.46L173.033 939.705ZM173.204 945.769C159.741 986.63 145.285 1029.11 126.402 1082.44L173.204 945.769ZM172.969 944.388C154.549 1000.28 136.236 1053.41 127.024 1083.98L172.969 944.388ZM173.076 952.767C162.015 985.099 151.12 1016.56 128.713 1084.03L173.076 952.767ZM173.464 950.553C160.141 990.378 146.647 1030.76 128.567 1083.85L173.464 950.553ZM172.609 957.504C160.862 993.841 148.648 1025.47 130.097 1084.19L172.609 957.504ZM173.308 956.596C165.117 982.592 156.005 1009.1 130.466 1082.81L173.308 956.596ZM174.002 962.813C164.899 989.467 154.313 1017.71 132.735 1083.98L174.002 962.813ZM173.103 963.759C159.653 1004.55 145.904 1045 132.757 1084.04L173.103 963.759ZM173.593 968.436C161.82 1003.62 149.973 1035.86 134.616 1083.65L173.593 968.436ZM172.895 968.743C165.342 991.697 157.316 1015.44 134.519 1083.57L172.895 968.743ZM173.672 974.202C159.307 1017.5 144.783 1061.25 137.528 1083.96L173.672 974.202ZM173.27 975.032C164.238 999.183 156.346 1024.98 137.068 1083.55L173.27 975.032ZM173.582 980.713C159.88 1023.54 146.077 1060.94 139.143 1083.17L173.582 980.713ZM173.399 982.119C159.6 1021.45 145.9 1061.62 138.752 1083.82L173.399 982.119ZM173.04 987.862C165.691 1012.23 157.682 1036.14 140.658 1085.02L173.04 987.862ZM173.584 986.762C164.957 1012.3 156.717 1034.49 141.408 1082.39L173.584 986.762ZM173.904 992.865C165.175 1013.66 157.411 1037.76 143.322 1083.46L173.904 992.865ZM173.43 994.372C165.446 1017.19 157.024 1041.14 142.828 1082.21L173.43 994.372ZM173.049 1001.55C166.985 1016.44 160.905 1034.03 145.836 1081.78L173.049 1001.55ZM173.286 999.998C167.552 1017.15 161.491 1035.1 144.802 1082.17L173.286 999.998ZM173.058 1006.2C167.522 1024.14 162.045 1038.96 147.38 1084.89L173.058 1006.2ZM172.986 1005.37C166.391 1026.69 159.077 1046.36 147.449 1082.22L172.986 1005.37ZM173.465 1011.34C164.417 1036.39 157.198 1060.18 149.726 1082.01L173.465 1011.34ZM173.403 1011.4C165.11 1036.13 157.171 1060.14 149.08 1082.42L173.403 1011.4ZM172.817 1019.56C166.588 1037.14 159.143 1058.78 150.67 1084.52L172.817 1019.56ZM173.574 1018.66C164.75 1042.78 156.99 1066.83 151.327 1083.82L173.574 1018.66ZM173.835 1023.82C168.617 1037.7 164.341 1048.46 152.989 1082.05L173.835 1023.82ZM173.435 1023.42C168.6 1037.81 164.421 1050.97 153.242 1083.87L173.435 1023.42ZM172.877 1030.27C167.503 1046.76 162.934 1058.37 154.825 1082.61L172.877 1030.27ZM173.588 1030.59C168.842 1041.79 165.408 1054.18 155.759 1083.83L173.588 1030.59ZM173.749 1036.72C168.104 1051.59 161.83 1070.34 157.783 1081.22L173.749 1036.72ZM173.094 1036.8C169.331 1047.49 165.533 1058.01 157.313 1082.72L173.094 1036.8ZM173.599 1040.86C169.006 1056.47 164.612 1067.76 159.262 1082.95L173.599 1040.86ZM172.903 1043.06C168.504 1055.72 163.928 1068.89 159.244 1082.81L172.903 1043.06ZM173.206 1048.73C170.549 1058.47 167.987 1064.03 160.927 1083.22L173.206 1048.73ZM173.56 1049.31C170.024 1057.41 166.706 1068.68 161.933 1082.65L173.56 1049.31ZM173.565 1054.67C170.795 1062.32 169.242 1066.64 163.555 1082.7L173.565 1054.67ZM173.264 1053.81C170.517 1060.95 168.219 1068.57 163.459 1082.11L173.264 1053.81ZM172.545 1060.52C170.385 1069.96 168.062 1075.97 165.924 1081.62L172.545 1060.52ZM173.526 1061.32C171.723 1065.52 169.808 1071.18 166.042 1083.29L173.526 1061.32ZM173.276 1067.56C171.325 1073.01 168.667 1081.23 167.762 1084.03L173.276 1067.56ZM172.873 1067.68C171.015 1072.73 169.454 1079.16 168.079 1084.04L172.873 1067.68ZM173.415 1071.65C172.274 1077.07 170.975 1080.05 169.601 1082.72L173.415 1071.65ZM173.272 1073.34C171.995 1075.25 171.153 1079.39 169.924 1082.67L173.272 1073.34ZM173.362 1078.9C172.879 1079.79 172.639 1080.6 171.771 1083.33L173.362 1078.9Z" stroke="#D9D9D9" stroke-width="0.5"/>
<path d="M4.35446 1083.98C69.7194 1082.52 121.51 1083.97 173.404 1085.8L4.35446 1083.98ZM4.35446 1083.98C5.11747 660.473 4.9835 236.899 4.69727 3.2532L4.35446 1083.98ZM4.156 1082.99C0.368443 829.414 -0.282382 573.682 3.70288 2.08065M3.39033 2.25784C46.3264 2.56426 88.4888 -0.0226986 172.677 4.7673L3.39033 2.25784ZM3.7901 3.15969C62.5166 -0.13091 121.517 0.547656 173.056 3.78365L3.7901 3.15969ZM173.988 1.08028C175.832 429.892 174.993 860.755 172.785 1082.24L173.988 1.08028ZM173.493 3.12154C175.321 432.127 175.38 859.592 173.628 1082.59L173.493 3.12154ZM173.161 1083.96C108.768 1081.26 43.9889 1081.23 3.93786 1082.11L173.161 1083.96Z" stroke="#262626"/>
</svg>
